<svg width="72" height="72" viewBox="0 0 72 72" fill="none" xmlns="http://www.w3.org/2000/svg">
<g id="iconmonstr-smiley-13 1" clip-path="url(#clip0_138_84)">
<path id="Vector" d="M36 6C52.542 6 66 19.458 66 36C66 52.542 52.542 66 36 66C19.458 66 6 52.542 6 36C6 19.458 19.458 6 36 6ZM36 0C16.119 0 0 16.119 0 36C0 55.881 16.119 72 36 72C55.881 72 72 55.881 72 36C72 16.119 55.881 0 36 0ZM52.524 41.823C47.985 45.408 43.002 47.616 36.003 47.616C28.998 47.616 24.015 45.408 19.476 41.823L18 43.302C21.381 48.462 27.6 54 36.003 54C44.403 54 50.619 48.462 54 43.302L52.524 41.823ZM54 30.006L51.735 31.524C51.735 31.524 50.226 28.68 46.497 28.68C42.876 28.68 41.262 31.524 41.262 31.524L39 30.006C39.843 27.762 42.615 24 46.497 24C50.382 24 53.151 27.762 54 30.006ZM33 30.006L30.735 31.524C30.735 31.524 29.226 28.68 25.497 28.68C21.876 28.68 20.262 31.524 20.262 31.524L18 30.006C18.843 27.762 21.615 24 25.497 24C29.382 24 32.151 27.762 33 30.006Z" fill="#941E1E"/>
</g>
<defs>
<clipPath id="clip0_138_84">
<rect width="72" height="72" fill="white"/>
</clipPath>
</defs>
</svg>
