<svg width="34" height="35" viewBox="0 0 34 35" fill="none" xmlns="http://www.w3.org/2000/svg">
<path d="M25 33.25H9C4.58 33.25 1 29.67 1 25.25V9.25C1 4.83 4.58 1.25 9 1.25H25C29.42 1.25 33 4.83 33 9.25V25.25C33 29.67 29.42 33.25 25 33.25Z" stroke="#FCCD0A" stroke-width="2" stroke-miterlimit="10" stroke-linecap="round" stroke-linejoin="round"/>
<path d="M17 25.25C21.4183 25.25 25 21.6683 25 17.25C25 12.8317 21.4183 9.25 17 9.25C12.5817 9.25 9 12.8317 9 17.25C9 21.6683 12.5817 25.25 17 25.25Z" stroke="#FCCD0A" stroke-width="2" stroke-miterlimit="10" stroke-linecap="round" stroke-linejoin="round"/>
<path d="M27 9.5C28.1046 9.5 29 8.60457 29 7.5C29 6.39543 28.1046 5.5 27 5.5C25.8954 5.5 25 6.39543 25 7.5C25 8.60457 25.8954 9.5 27 9.5Z" stroke="#FCCD0A" stroke-width="2" stroke-miterlimit="10" stroke-linecap="round" stroke-linejoin="round"/>
</svg>
