<svg width="24" height="34" viewBox="0 0 24 34" fill="none" xmlns="http://www.w3.org/2000/svg">
<path d="M23 11.94C23 16.7 16.17 28.13 13.27 32.33C12.66 33.22 11.34 33.22 10.73 32.33C7.84 28.13 1 16.71 1 11.94C1 5.9 5.92 1 12 1C18.08 1 23 5.9 23 11.94Z" stroke="#FCCD0A" stroke-width="2" stroke-miterlimit="10" stroke-linecap="round" stroke-linejoin="round"/>
<path d="M12 17.98C15.3137 17.98 18 15.2937 18 11.98C18 8.66627 15.3137 5.97998 12 5.97998C8.68629 5.97998 6 8.66627 6 11.98C6 15.2937 8.68629 17.98 12 17.98Z" stroke="#FCCD0A" stroke-width="2" stroke-miterlimit="10" stroke-linecap="round" stroke-linejoin="round"/>
</svg>
