<svg width="21" height="35" viewBox="0 0 21 35" fill="none" xmlns="http://www.w3.org/2000/svg">
<g clip-path="url(#clip0_406_8)">
<path fill-rule="evenodd" clip-rule="evenodd" d="M16.9999 1.00024C18.4798 1.00024 19.6696 2.20014 19.6696 3.66995V30.3403C19.6696 31.8198 18.4697 33.01 16.9999 33.01H3.66995C2.19006 33.01 1.00024 31.8101 1.00024 30.3403V3.66995C1.00024 2.19006 2.20014 1.00024 3.66995 1.00024H16.9999Z" stroke="#FCCD0A" stroke-width="1.99995" stroke-miterlimit="22.9256"/>
<path d="M6.63516 4.08447H14.035" stroke="#FCCD0A" stroke-width="1.99995" stroke-miterlimit="22.9256" stroke-linecap="round" stroke-linejoin="round"/>
<path fill-rule="evenodd" clip-rule="evenodd" d="M6.41451 14.0257C5.67573 16.7838 9.53563 23.4697 12.2938 24.2089C12.7068 24.3198 13.2959 23.9851 13.6794 23.7408C14.0482 23.5058 14.2724 23.1564 14.3325 22.7228C14.3922 22.2892 14.2712 21.8925 13.9796 21.5663C13.4766 21.0032 13.0267 20.3405 12.6409 20.2369C12.1429 20.1035 11.9346 20.1551 11.6399 20.2167C11.2098 20.3079 10.7875 20.114 10.5761 19.7285L9.43597 17.7534C9.20754 17.3772 9.25098 16.9149 9.54494 16.5876C9.74583 16.3638 9.89436 16.2087 10.0282 15.7111C10.1317 15.3249 9.78306 14.6039 9.54649 13.8869C9.40959 13.4715 9.12649 13.1678 8.72123 13.003C8.31557 12.8378 7.90139 12.8576 7.5128 13.0593C7.10947 13.2695 6.52543 13.6123 6.4149 14.0253L6.41451 14.0257Z" fill="#FCCD0A"/>
</g>
<defs>
<clipPath id="clip0_406_8">
<rect width="20.6699" height="34.0101" fill="white"/>
</clipPath>
</defs>
</svg>
