<svg width="78" height="100" viewBox="0 0 78 100" fill="none" xmlns="http://www.w3.org/2000/svg">
<g id="Mask group">
<mask id="mask0_122_135" style="mask-type:alpha" maskUnits="userSpaceOnUse" x="0" y="0" width="78" height="100">
<path id="Rectangle 34" d="M0 30C0 13.4315 13.4315 0 30 0H48C64.5685 0 78 13.4315 78 30V70C78 86.5685 64.5685 100 48 100H30C13.4315 100 0 86.5685 0 70V30Z" fill="white"/>
</mask>
<g mask="url(#mask0_122_135)">
<path id="Vector" d="M78.97 87.3519C72 79.9848 61.09 74.647 48.37 72.8677V70.4887C55.44 70.0688 62.71 68.6794 69.35 71.0684C66.67 63.3016 65.02 55.1748 64.45 46.9781C63.99 40.3608 64.22 33.5636 62.09 27.2861C59.7 20.2289 54.18 14.1914 47.19 11.5924C40.2 8.99347 31.86 10.063 26.02 14.7012C23.97 16.3205 22.13 18.6596 22.34 21.2585C18.79 20.059 14.84 22.578 13.18 25.9366C11.52 29.2953 11.6 33.2137 11.84 36.9522C12.53 47.8978 14.2 59.1233 11.24 69.679C17.37 69.8689 23.51 70.0488 29.64 70.2388V72.8777C16.91 74.647 6 79.9848 -0.97 87.3519H-1V107.254H79V87.3519H78.97Z" fill="#323232"/>
</g>
</g>
</svg>
