<svg width="78" height="104" viewBox="0 0 78 104" fill="none" xmlns="http://www.w3.org/2000/svg">
<g id="Mask group">
<mask id="mask0_122_99" style="mask-type:alpha" maskUnits="userSpaceOnUse" x="0" y="0" width="78" height="104">
<path id="Rectangle 27" d="M0 30C0 13.4315 13.4315 0 30 0H48C64.5685 0 78 13.4315 78 30V74C78 90.5685 64.5685 104 48 104H30C13.4315 104 0 90.5685 0 74V30Z" fill="#FCCD0A"/>
</mask>
<g mask="url(#mask0_122_99)">
<path id="Vector" d="M51.2168 74.0296C51.051 72.474 50.8365 70.9183 50.5732 69.3737C50.0467 70.0626 49.3643 70.496 48.6135 70.7849V67.0402C52.689 63.6177 55.848 58.1061 57.3983 51.4722C58.9875 51.4389 60.8985 49.1276 61.893 45.8384C63.024 42.1159 62.5755 38.56 60.8888 37.8933C60.1088 37.5821 59.202 37.9488 58.3343 38.8045C58.2953 38.3044 58.2465 37.8044 58.188 37.3154C59.4068 35.3153 60.6157 33.3262 61.8345 31.3261C61.1618 31.3149 60.489 31.3038 59.8162 31.2927C62.1855 30.6482 64.194 28.548 64.974 25.9145C63.9308 25.8812 62.8875 25.8367 61.8443 25.8034C63.687 25.0033 65.3153 23.5698 66.4463 21.7252C65.1105 21.6252 63.7845 21.5141 62.4488 21.4141C64.2428 20.6252 65.7832 19.1028 66.7193 17.1804C65.1787 17.8471 63.4335 17.9027 61.854 17.336C63.5602 16.5804 65.013 15.1136 65.8808 13.269C61.7565 15.9914 56.4622 16.2359 52.1625 13.9024C49.8518 12.6467 47.853 10.7354 45.4838 9.63535C41.652 7.85742 37.0305 8.52414 33.7057 11.3355C32.2335 12.58 30.888 14.2691 29.0745 14.5691C28.1678 14.7135 27.2513 14.4913 26.3348 14.4469C21.0893 14.2246 17.0917 20.5474 16.9552 26.5257C16.8675 30.6816 18.096 34.6263 19.695 38.4044C19.6853 38.5378 19.6658 38.6822 19.656 38.8156C18.7882 37.9711 17.8815 37.6044 17.1015 37.9044C15.4148 38.5711 14.9663 42.127 16.0972 45.8495C17.1015 49.1387 19.0028 51.45 20.592 51.4833C22.152 58.1061 25.3013 63.6288 29.3767 67.0513V70.796C28.626 70.5071 27.9533 70.0626 27.417 69.3848C27.1538 70.9294 26.9392 72.474 26.7735 74.0407C15.678 76.0743 6.201 80.8302 0 87.1974V108.499H78V87.1974C71.799 80.8302 62.322 76.0743 51.2168 74.0296Z" fill="#323232"/>
</g>
</g>
</svg>
