<?xml version="1.0" encoding="UTF-8"?>
<!DOCTYPE svg PUBLIC "-//W3C//DTD SVG 1.1//EN" "http://www.w3.org/Graphics/SVG/1.1/DTD/svg11.dtd">
<!-- Creator: CorelDRAW 2020 (64-Bit) -->
<svg xmlns="http://www.w3.org/2000/svg" xml:space="preserve" width="800px" height="313px" version="1.1" style="shape-rendering:geometricPrecision; text-rendering:geometricPrecision; image-rendering:optimizeQuality; fill-rule:evenodd; clip-rule:evenodd"
viewBox="0 0 798.32 311.95"
 xmlns:xlink="http://www.w3.org/1999/xlink"
 xmlns:xodm="http://www.corel.com/coreldraw/odm/2003">
 <defs>
  <style type="text/css">
   <![CDATA[
    .fil1 {fill:#0C0601}
    .fil0 {fill:#323232}
    .fil8 {fill:#359E3B}
    .fil11 {fill:#6C1C4A}
    .fil13 {fill:#7B7C7C}
    .fil12 {fill:#995B82}
    .fil4 {fill:#CB1A1A}
    .fil6 {fill:#DCE3E7}
    .fil10 {fill:#E64746}
    .fil7 {fill:#E69D6C}
    .fil9 {fill:#F3A422}
    .fil5 {fill:#F5B889}
    .fil3 {fill:#FACD0A}
    .fil2 {fill:#FAFBFB}
   ]]>
  </style>
 </defs>
 <g id="Layer_x0020_1">
  <metadata id="CorelCorpID_0Corel-Layer"/>
  <g id="_1889130159088">
   <path class="fil0" d="M0 87.21l236.67 0c27.69,-51.66 85.58,-87.21 152.52,-87.21 66.95,0 124.84,35.55 152.53,87.21l256.6 0 0 152.48 -265.75 0c-30.17,43.45 -83.1,72.26 -143.38,72.26 -60.27,0 -113.21,-28.81 -143.37,-72.26l-245.82 0 0 -152.48z"/>
   <g>
    <path class="fil1" d="M454.6 197.86c0.1,-17.93 -2.16,-13.56 -4.41,-24.48 2.43,0.66 5.01,2.23 7.96,3.02 3.67,0.99 6.16,0.85 10.07,0.8 -1.01,4.55 -11.28,19.12 -13.62,20.66zm-111.98 -31.51l-3.64 17.73c-1.7,10.93 -0.91,9.95 -0.9,19.53 -4.02,-2.16 -12.23,-13.38 -14.96,-17.83 -3.09,-5.04 -8.77,-16.48 -9.66,-23.36 1.89,0.83 3.54,2.56 6.02,3.71 2.29,1.05 4.56,1.71 7.12,2.12 8.32,1.35 10.53,-0.57 16.02,-1.9zm-41.31 -19.39c0.92,0.73 4.12,6.47 6.08,8.94 0.8,1.02 1.64,1.62 2.03,3.06 3.12,11.73 4.55,18.13 11.32,28.88 3.31,5.26 4.74,7.08 8.58,11.51 10.46,12.06 28.14,24.84 51.94,28.13 34.57,4.77 64.48,-10.49 82.67,-36.18 2.57,-3.63 5.24,-8.16 7.28,-12.81 1.64,-3.73 0.76,-1.32 5.67,-4.2 3.27,-1.92 3.93,-3.28 5.58,-4.39 -3.13,13.19 -14.05,29 -23.5,38.44 -3.07,3.08 -7.44,6.89 -11.42,9.63 -17.55,12.06 -39.01,19.53 -65.95,16.18 -17.1,-2.13 -31.29,-8.79 -44.17,-18.35 -2.71,-2.01 -3.58,-3.06 -5.65,-4.86 -2.08,-1.81 -3.42,-3.23 -5.3,-5.23 -6.85,-7.33 -11.47,-13.92 -16.88,-24.89 -3.91,-7.95 -8.33,-23.82 -8.28,-33.86zm113.76 6.67c-3.5,-2.15 -3.46,-3.6 -9.99,-6.76 -3.1,-1.51 -10.98,-2.25 -12.31,-3.86 0.93,-1.09 1.57,-0.67 3.05,-3.22l2.24 0.23c4.82,0.54 6.88,2.85 10.43,4.12 -6.68,-6.59 -9.3,-4.68 -11.69,-6.23 0.41,-2.09 1.16,-1.62 2.93,-2.5 2.19,-1.09 3.17,-3.86 10.3,2.69 5.78,5.33 5.92,15.57 5.04,15.53zm-32.62 -16.39c5.75,0.84 7.56,0.46 13.1,-0.2 -0.31,2.77 -2.31,4.87 -5.32,4.99 -1.47,-0.17 -5.45,-0.56 -6.74,-0.97 -1.43,-0.45 -3.16,-2.66 -3.6,-4.5l2.56 0.68zm-6.11 0.7c-2.73,1.85 -4.67,2.32 -6.53,4.86l4.68 -2.35c1.43,-0.96 3.09,-1.38 5.08,-1.48l2.24 3.1c-8.46,5.18 -14.02,4.07 -18.48,7.86 -0.43,-0.35 -0.3,0.6 -0.44,-0.8 0.28,-4.14 2.4,-7.87 4.59,-9.94 1.4,-1.33 2.19,-2.13 4.2,-3.13 1.66,-0.83 3.55,-1.86 5.13,-0.85 1.06,0.42 1.41,0.84 1.66,1.95l-2.13 0.78zm67.35 18.15c-0.9,-0.82 -5.55,-12.36 -8.23,-14.93l11.26 29.76c3.01,8.45 6.12,15.86 5.6,25.06 -0.26,4.65 -0.11,4.88 -2.89,7.3 -4.58,3.99 -6.43,5.53 -11.7,9.03 -12.74,8.45 -32.14,14.1 -48.07,12.78 -0.35,-1.41 -4.72,-12.56 -6.19,-17.69 -1.94,-6.73 -2.87,-12.83 -3.36,-20.21 -0.71,-10.69 1.79,-31.95 6.67,-40.43l1.37 -3.56c4.1,0.04 4.03,1.65 7.85,2.55 3.01,0.71 5.59,0.74 8.19,2 7.63,3.69 10.47,7.94 11.76,8.65 1.28,-2.2 0.56,-7.14 0.04,-9.62 -1.08,-5.2 -2.48,-5.34 -3.07,-7.7 1.43,-0.54 2.19,-1.41 3.38,-2.19 0.39,-1.14 1.5,-1.5 2.36,-2.64 0.7,-0.92 1.47,-1.99 2.08,-3.04 1.45,-2.51 1.68,-4.2 2.6,-7.01l0.34 -4.47c5.42,-2.72 14.03,2.37 17.65,4.61 2.71,1.68 6.14,3.18 6.43,5.28 0.54,3.85 1.97,5.45 2.19,9.46 0.76,5.85 0.35,6.2 3.4,10.23 4.17,5.51 7.95,15.7 20.78,10.42 0.87,-0.36 1.54,-0.67 2.36,-1.15 0.4,-0.23 0.65,-0.41 0.99,-0.6 1.07,-0.61 0.29,-0.27 1,-0.45 0.93,-1.41 1.75,-1.61 3.55,-3.94 1.27,-1.63 1.74,-2.82 2.44,-4.89 1.82,-5.36 0.67,-7.85 0.86,-12.91 0.63,3.79 1.7,4.34 1.77,11.05 0.04,4.11 -0.29,7.71 -1.35,11.43 -4.7,16.49 -20.36,20.05 -32.31,13.92 -4.66,-2.39 -4.17,-1.48 -6.14,-6.61 -1.08,-2.83 -2.98,-6.74 -3.61,-9.49zm35.29 -1.22c-0.18,0.97 0.01,0.64 -2.01,1.96 -2.47,1.62 -5.56,3.03 -8.71,3.09 -4.98,0.08 -8.35,-2.9 -10.05,-5.63 1.19,0.22 2.13,1.07 3.75,1.38 5.92,1.13 10.34,-2.57 12.31,-2.64 0.74,-1.28 3.23,-2.96 4.38,-4.09 1.29,-1.25 2.35,-3.2 3.12,-5.16 2.79,-7.09 0.71,-9.77 0.64,-14.14 3.63,6.94 2.27,22.53 -3.43,25.23zm-162.88 -16.53c-3.62,-0.1 -8.25,-2.29 -9.58,-4.52 5.24,1.43 5.69,1.79 11.89,1.41 2.45,-0.87 4.37,-1.16 6.94,-2.45 1.91,-0.95 4.17,-2.45 4.73,-4.53l0.75 -0.62 -0.38 1.06c-0.16,6.12 -7.6,9.95 -14.35,9.65zm53.29 -8.42c0.84,0.72 1.31,1.32 2.15,2.02 0.75,0.62 1.37,1.14 1.97,1.83 -0.64,0.48 -1.96,0.99 -2.84,0.88 -2.26,-1 -3.77,-4.23 -4.15,-7.61 0.8,0.4 2.29,2.15 2.87,2.88zm43.7 7.24c-0.65,0.88 -0.37,0.62 -1.25,0.96 -0.98,-0.73 -1.6,-1.59 -2.68,-2.44 0.78,-1.11 6.36,-6.75 7.25,-7.2 0.95,-1.67 1.88,-2.24 2.9,-3.48 0.79,-0.97 1.68,-2.35 2.64,-3.24 0.82,5.03 -4.95,13.79 -8.86,15.4zm-68.71 6.12l-0.76 -3.77c1.08,-1.12 3.86,-2.58 5.34,-3.53 3.34,-2.17 14.17,-9.86 15.9,-10.16l0.83 4.46c2.42,5.17 2.71,3.89 3.63,5.74 -4.58,2.68 -7.8,8.7 -7.7,16.56 0.63,0.3 -0.63,0.3 0.72,0.2 0.42,-1.13 0.72,-1.47 2.25,-2.45 3.95,-2.55 10.15,-2.8 15.9,-6.1 3.45,-1.99 1.95,-1.77 6.54,-1.44l-1.86 4.41c-2.12,7.8 -3.26,7.87 -5,18.38 -2.77,16.76 -1.98,35.28 4.67,50.96 1.05,2.48 2.7,5.94 3.43,8.47 -15.17,-0.81 -30.3,-6.38 -41.9,-14.64 -5.76,-4.1 -6.27,-3.71 -6.21,-12.83 0.09,-15.66 5.73,-41.96 17.41,-53.59 1.07,-1.06 1.63,-1.25 2.29,-2.51 -3.55,0.86 -9.45,8.89 -10.33,11.18 -1.51,2.97 -2.75,5.37 -4.14,8.49 -2.21,4.97 -18.48,7.84 -28.01,1.07 -7.62,-5.42 -20.91,-22.59 -15.92,-31.25 2.19,0.77 2.49,2.13 4.18,3.76 6.56,6.38 10.29,4.97 17.51,3.95 3.18,-1.56 5.18,-2.73 6.96,-5.25 2.69,-3.81 1.62,-6.22 0.94,-10.49 1.91,0.05 2.37,0.93 3.24,1.96 0.76,0.89 1.55,2.09 2.29,3.13 6.65,9.35 7.08,20.95 8.6,23.38 0.15,-2.79 -0.38,-5.41 -0.8,-8.09zm-41.33 -14.61c-1.13,-0.7 -3.14,-1.89 -3.34,-3 6.54,-0.78 20.36,-4.03 26.95,-6.24 2.61,-0.87 5.53,-2.28 8.05,-2.93 0.29,-0.2 0.77,-0.54 1.15,-0.65l0.9 -0.05c0.03,-0.08 0.15,0.01 0.22,0.04 0.98,2.4 -0.08,4.09 -2.38,4.35 -2.64,0.28 -4.06,0.29 -6.45,1.01 -4.09,1.24 -6.62,3.48 -8.67,5.74 2.06,-0.31 5.26,-3.52 8.13,-4.03 3.46,5.77 -4.75,8.98 -9.31,9.83 -4.92,0.91 -11.78,-0.76 -14.83,-3.53 -0.42,-0.38 -0.29,-0.17 -0.42,-0.54zm162.63 14.24c-0.73,0.45 -5.81,0.92 -6.2,-2.86 -0.53,-5.19 4.04,-4.23 5.59,-4.36 1.78,-0.45 4.03,-0.78 4.66,-2.44 -1.37,0.29 -1.64,0.75 -3.18,0.68 -1.28,1.13 -5.62,1.2 -6.9,0.15 -1.63,-1.34 -1.26,-5.14 -0.39,-6.83l5.17 -1.19c0.87,-1.36 4.72,-1.44 5.5,-4.42 -1.82,0.56 -3.11,2.42 -4.84,2.44 -0.29,0.24 -0.05,0.1 -0.61,0.45 -0.37,0.22 -0.25,0.16 -0.66,0.35 -9.46,4.38 -10.64,-7.55 0.29,-10.8 1.24,-1.04 7.21,-2.01 9.08,-1.55 3.07,0.74 3.86,4.34 3.57,7.52 0.29,0.38 0.06,0 0.38,0.65 0.01,0.02 0.27,0.66 0.29,0.71 0.2,0.55 0.29,0.92 0.46,1.46 0.27,0.86 0.54,1.75 0.81,2.68 1.24,4.22 2.41,7.77 2.1,12.37 -0.12,1.72 -0.52,4.27 -1.69,5.57 -0.09,1.13 -0.9,2.18 -1.61,3.03 -0.67,0.81 -1.32,1.83 -2.09,2.23 -0.6,0.98 -0.55,0.76 -1.98,1.67 -6.22,3.95 -11.55,4.45 -16.66,-0.71 -2.59,-2.62 -3.84,-4.39 -4.36,-9.25 -1.03,-9.63 -1.51,-6.16 -2.45,-11.12 -0.31,-10.11 1.74,-11.35 -4.26,-18.62 -4.66,-5.66 0,-7.95 3.4,-7.84 4.38,0.13 10.76,6.4 11.32,11.43 -1.68,1.72 -4.28,2.64 -5.11,5.57 -1.23,4.37 2.09,6.49 2.65,7.19 -0.86,5.44 -1.02,5.01 1.46,8.61 -2.19,5.63 -1.19,8.79 5.66,8.68 1.66,-0.02 3.3,-0.17 4.23,-1.42 -1.48,0.08 -2.17,0.28 -3.63,-0.03zm-69.24 -22.7c-3.15,-1.85 -6.78,-0.87 -10.8,-1.11 -3.85,-0.24 -5.94,-1.59 -7.12,-1.11l-1.7 1.36c-1.11,1.83 -2.81,0.56 -3.4,-1.09 -0.99,-2.73 -2.01,-13.06 -2.03,-15.77 1.22,0.22 2.27,0.75 3.53,1.2 1.58,0.56 1.86,0.74 2.25,2.51 0.8,3.65 -1.05,5.05 -0.76,8.11 3.27,2.33 14.4,2.45 18.52,1.3 6.79,-1.9 6.53,-10.29 7.95,-12.73 2.71,3.6 3.63,14.39 -1.34,18.07 -2.78,2.06 -3.51,1.34 -5.1,-0.74zm1.25 -12.42c-0.67,0.58 -0.05,0.21 -1.16,0.51 -0.31,0.08 -0.68,0.12 -1.06,0.21 -0.79,0.2 -1.22,0.35 -2.14,0.49l-0.16 0.47 6.33 0.22c-2.13,4.39 -4.24,5.18 -9.4,5.57 -0.45,0.03 -4.42,0.17 -4.62,-0.27 -0.05,-0.1 -0.18,-0.06 -0.26,-0.11 -2.27,0.66 -5.5,-0.48 -7.77,-0.99 -0.1,-1.51 0.43,-2.98 0.94,-4.3l4.61 0.12c-0.44,-0.43 -0.11,-0.19 -0.72,-0.55l-0.5 -0.24c-0.03,-0.02 -0.88,-0.26 -1,-0.29 -0.83,-0.22 -1.43,-0.35 -2.21,-0.68l-0.75 -3.42c2.54,0.2 4.59,0.85 7.19,0.89 2.41,0.04 4.59,-0.38 6.97,-0.36l2.61 -0.46 7.08 -2.18c-0.3,3.1 -0.45,5.59 -3.98,5.37zm-137.62 8.44c-3.14,-3.39 0.76,-10.48 2.65,-12.6 4.85,-5.45 6.31,-2.7 11.37,-6.16 1.55,-1.06 3.36,-3.15 4.56,-4.37 8.93,-9.06 12.86,-3.18 19.92,-5.92 6.3,-2.45 5.4,-3.23 14.51,-1.38 6.23,1.27 8.72,-1.92 14.53,-1.95 4.04,-0.03 9.81,2.57 14.28,3.42 5.18,0.98 8.54,2.64 9.38,7.83 1.67,14.77 -25.32,22.8 -39.34,25.81 -9.34,2.01 -18.31,3.81 -28.34,4.14 -9.49,0.32 -21.04,-1.57 -23.52,-8.82zm114.26 -34.69c1.49,0.39 0.37,0.11 0.85,0.6 0.5,1.01 0.34,0.74 -0.05,1.52 -1.37,-0.06 -0.68,0.31 -1.17,-0.69 -0.24,0.17 -0.51,0.27 -0.73,0.46 0.01,1.96 0.06,2.41 1.04,3.99 0.13,0.21 0.28,0.44 0.41,0.66 0.04,0.05 0.12,0.29 0.14,0.24 0.03,-0.05 0.1,0.16 0.14,0.25 -5.81,0 -6.25,-4.78 -3.6,-8.64 3.17,-4.6 7.4,-2.78 7.38,3.52l-0.35 -0.39c-0.14,-0.19 -2.35,-4.47 -4.06,-1.52zm94.59 27.89l0.4 0.86 -1.13 0.19 -6.02 1.39c-1.62,-5.85 -11.05,-15.57 -18.83,-9.41 -3.99,3.17 -1.25,7.48 1.09,10.49 3.02,3.88 3.78,5.84 3.19,12.3 -0.69,-0.03 -8.11,-4.76 -9.83,-5.67 -4.83,-2.59 -6.75,-2.56 -12.76,-2.82 1.4,-4.84 3.54,-5.64 4.08,-15.81 2.74,-1.27 4.1,-2.28 5.45,-5.03 1.2,-2.48 1.77,-5.37 1.81,-8.4 0.14,-12.13 -4.62,-5.72 -3.61,-17.18 3.63,1.05 13.85,8.96 16.73,11.71 0.78,0.75 1.51,1.66 2.31,2.47 3.31,3.35 2.99,2.55 6.65,7.39 3.67,4.85 8.34,11.68 10.47,17.52zm-132.03 -25.69c-0.26,-0.11 -1.58,-0.78 -0.32,-0.78 0.74,-0.51 0.76,-0.74 1.4,-1.33l10.09 -7.78c4.45,-3.09 3.62,-2.89 6.79,-1.78 2.82,1 5.45,1.27 8.57,1.65 -0.12,1.53 -5.27,8.27 -6.38,10.06 -2.68,4.32 -2.15,9.15 -1.66,14.58 0.7,7.69 1.77,13.39 5.24,19.93 0.93,1.75 2.67,3.7 3.12,5.37 -2.02,0.79 -7.92,4.99 -10.1,6.47 -2.16,1.47 -7.79,5.45 -10.15,6.25 -3.14,-8.76 -6.32,-10.65 -7.81,-13.76 4.03,-2.15 4.54,-2.57 3.47,-8.38 5.59,-2.92 13.69,-8.66 14.53,-16.6 1.12,-10.59 -8.08,-12.24 -16.79,-13.9zm101.11 -14.41c8.03,-2.9 4.4,-2.17 7.93,-3.85 2.65,1.1 8.69,6.47 11.14,8.67 1.01,0.91 2.03,2.09 3.2,3.18 1.99,1.85 4.3,4.55 6.17,6.9 1.92,2.41 3.67,4.89 5.48,7.6 5.68,8.52 14.15,28.56 13.94,38.41l-3.15 -3.91c-5.84,-7.79 -2.23,-14.17 -8.06,-15.85 -3.57,-1.02 -1.45,0.09 -4.52,-5.69 -3.63,-6.84 -5.66,-10.58 -10.68,-16.44 -5.04,-5.89 -7.16,-8.55 -13.76,-13.35 -1.73,-1.26 -6.74,-4.45 -7.69,-5.67zm-114.18 12.43c1.09,-2.53 16.4,-16.72 20.47,-17.59 1.2,2.51 3,3.22 4.75,5.17l-1.1 0.88c-3.78,2.48 -12.34,8.62 -14.64,11.79 -1.62,0.13 -3.15,-0.44 -4.76,-0.53 -1.72,-0.09 -3.05,0.21 -4.72,0.28zm54.64 -19.56l0.3 2.03c-0.74,-0.33 -1.54,-0.93 -2.26,-1.5l1.96 -0.53zm19.32 -1.63l1.79 0.31c-0.16,0.57 -0.2,0.54 -0.8,1.15 -0.53,0.54 -0.62,0.6 -1.09,0.92l0.1 -2.38zm-3.32 4.55c0.21,1.2 -0.01,1.38 0.47,2.16 2.84,0.36 5.21,-0.14 7.98,0.74 1.41,0.45 4.69,1.94 5.54,2.76l1.32 -0.24c0.73,-2.62 -3.27,-6.67 -4.5,-7.8 1.52,0.17 3.24,1.19 4.59,1.86 2.74,1.34 3.37,1.28 3.95,2.73 1.83,4.59 2.1,5.15 4.87,8.22 4.87,5.4 4.1,21.27 7.13,18.69l0.16 -0.47c0.02,-0.08 0.05,-0.17 0.06,-0.26l-0.21 -5.35c-0.42,-11.51 5.49,-11.32 7.22,-6.87 1.63,4.18 1.39,11.51 -1.85,15.4 -1.34,1.6 -1.76,1.94 -4.28,1.44 -0.62,9.43 -1.87,15.22 -6.57,21.52 -1.11,1.48 -1.95,2.43 -3.07,3.94 -1.26,1.71 -1.96,2.19 -3.42,3.6 -1.28,1.25 -2.38,2.15 -3.66,3.36 -1.08,1.02 -2.39,2.63 -3.47,3.46 -0.59,-0.18 -0.92,-0.29 -1.52,-0.65l-1.08 -0.87c1.07,-1.48 2.42,-2.62 3.56,-4.45 0.84,-1.33 1.76,-4.88 2.37,-5.63 -0.14,-2.01 0.47,-4.28 0.6,-6.5 0.52,-8.5 -2.46,-14.34 -3.05,-18.1l3.1 -0.53 -0.96 -0.64c-0.73,-0.32 -1.57,-0.23 -3.61,-1.21 -1.14,-0.55 -2.69,-1.57 -3.87,-1.85l0.83 1.78c-4.53,0.87 -9.04,3.57 -13.84,3.6 2.62,-3.17 3.14,-6.68 -0.26,-7.54 0.77,1.47 1.77,2.37 0.88,4.69 -2.07,3.98 -7.67,4.54 -12.69,2.75 -2.21,-0.78 -4.29,-2.03 -4.58,-4.35 -0.34,-2.66 1.45,-4.58 3.52,-5.16 2.9,-1.73 6.29,-0.34 7.74,-1.3 -2.05,-0.82 -2.2,-0.78 -4.91,-0.86l0.69 -1.9c0.33,-3.99 -0.19,-9.15 -4.83,-8.78 -4.67,0.37 -5.8,6.65 -6.15,7.21l0.16 1.02c-1.15,-0.14 -1.45,-0.22 -1.99,0.23 1.26,1.02 1.78,1.3 2.91,2.52 2.44,2.66 0.61,0.98 3.36,2.03 -1.81,3.67 -2.43,2.19 -1.13,7.18l-3.92 -0.5c0.06,-1.17 0.25,-1.4 -0.25,-2.23 -0.95,1.24 -1.32,2.38 -2.31,3.68 -1.01,1.33 -2.15,1.94 -2.77,3.03l2.7 -0.33c0.21,3.63 1.15,7.41 1.42,11.39 0.27,3.93 0.58,8.23 0.64,12.12 -1.04,-0.83 -3.07,-3.78 -3.96,-5.27 -3.9,-6.52 -5.38,-13.99 -5.87,-21.84 -0.86,-13.74 2.57,-11.72 7.32,-20.35 1.34,-2.44 1.23,-4.38 2.1,-6.43 0.17,-2.28 1.12,-2.33 2.49,-3.33 1.07,-0.79 1.97,-1.61 3.36,-2.07 -0.41,0.83 -0.86,1.16 -1.44,2.08 -0.36,0.56 -1.05,1.72 -1.29,2.08l-0.59 1.89c0.73,1.54 1.53,0.74 2.64,-0.01 1.05,-0.7 1.52,-1.06 2.6,-1.56 2.08,-0.96 4.28,-1.09 6.75,-1.38l-0.13 -2.01c-0.59,-1.12 -1.86,-2.85 -2.22,-4 6.35,-1.37 10.03,-2.2 17.07,-1.36 0.1,0.71 -1.33,4.12 -1.85,4.82zm30.53 6.24c-2.16,-0.64 -11.94,-10.66 -26.88,-13.24 -9.25,-1.59 -20.95,0.23 -28.62,5.58 -0.82,0.57 -1.83,1.67 -2.64,1.6l-1.79 -8.44c-0.43,-0.54 -0.3,-0.14 -0.54,-1.23 8.07,-0.58 14.05,-1.84 20.83,-6.05 1.68,-1.05 3.8,-2.99 5.41,-3.66 1.83,0.64 3.53,2.21 5.94,3.13 11.93,4.56 21,0.38 23.08,2.11 1.84,1.52 1.98,2.5 4.86,4.08 3.11,1.71 3.49,0.4 4.43,4.46 0.97,4.18 1.73,11.96 1.27,16.31 -1.43,-0.38 -1.82,-1.25 -2.89,-2.21 -0.93,-0.83 -1.86,-1.14 -2.46,-2.44zm24.29 -18.98c0.22,8.79 -7.54,15.76 -16.71,14.95l-1.08 -8.82c1.91,-0.11 4.59,0.06 5.81,-0.97 -2.39,-0.98 -9.61,-0.8 -14.2,-4.94 -0.46,-0.41 -0.16,-0.09 -0.53,-0.57 -1.37,-0.22 -1.54,-0.76 -1.91,-1.68 2.07,-0.59 5.15,-1.31 6.29,-3.07 -2.66,0.42 -5.63,1.61 -8.58,2.18 -3.1,0.6 -6.41,0.95 -9.75,0.83 -4.59,-0.17 -13.97,-2.04 -16.2,-4.87 1.42,-1.79 4.77,-4.24 5.71,-8.08 -1.06,0.6 -1.13,1.09 -1.94,2.03l-5.77 5.39c-7.14,6.19 -17.84,10.38 -27.73,9.73 -2.2,-0.14 -4.58,-0.73 -6.59,-0.73 1.66,1.81 3.65,1.74 6.46,2.33 0.6,1.45 1.25,3.31 0.99,4.92 0.46,0.69 0.71,3.84 0.85,5.1 0.18,1.56 0.33,3.31 0.03,4.83l-0.54 0.2c0,0 -2.34,0.31 -6.39,-0.73 -11.59,-2.99 -16.86,-13.43 -12.59,-23.32 1.52,-3.52 4.11,-7.22 6.78,-8.64l1.17 -1.27c2.94,-2.04 7.86,-4.55 11.42,-4.81l1.25 -0.31c0.04,0.5 0.09,0.38 0.02,0.93 -0.13,0.98 -0.18,0.53 -0.3,0.75 0.04,3.76 0.08,3.82 0.77,7.07 0.35,-2.9 -0.32,-5.36 0.62,-9 0.09,-0.38 0.22,-0.83 0.4,-1.18 0.24,-0.48 0.2,-0.39 0.41,-0.52 3.26,-8.26 9.11,-14.68 20.76,-14.29 8.58,0.29 15.07,4.22 20.58,9.98 0.44,0.45 0.66,0.65 1.12,1.1 0.73,0.74 0.4,0.24 0.94,1.15 2.19,0.46 3.76,8.25 12.84,8.19 -0.07,-0.05 -0.17,-0.11 -0.22,-0.14 -2.25,-1.28 -4.8,-1.22 -6.06,-3.47 8.75,-0.27 15.6,-0.47 22.3,3.71 4.61,2.87 9.05,8.34 9.57,16.04zm-107.29 7.71c-3.67,1.74 -10.89,7.77 -13.95,10.63l-6.03 6.42c-0.94,1.08 -2.11,1.97 -2.98,3.08 -1,1.27 -1.63,2.43 -2.9,3.55 -2.43,0.13 -6.21,-1.16 -9.28,-1.24 -3.82,-0.1 -5.43,0.75 -8.32,2.07 -5.55,2.53 -10.36,-1.39 -17.61,3.43 -4.53,3 -5.94,7.33 -12.02,9.05 -5.67,1.61 -8.72,4.54 -11.02,10.02 -5.17,12.34 6.81,19.59 19.66,20.19 3.49,0.16 6.8,0.09 10.23,-0.15 2.1,-0.15 8.27,-1.49 9.44,-0.29 1.1,1.12 -0.17,7.48 -0.29,9.47 -0.2,3.48 -0.17,6.74 -0.06,10.22 0.57,17.4 6.36,34.13 15.19,48.07 27.24,43 85.54,58.45 131.55,31.23 16.26,-9.62 30.99,-25.13 39.58,-44.94 9.21,-21.22 10.86,-48.25 2.5,-70.95 -5.06,-13.72 -9.26,-20.28 -17.06,-30.13l-7.7 -8.24c-2.54,-2.44 -5.91,-4.85 -8.8,-7.15 -0.93,-0.73 -2.1,-1.51 -3,-2.42 0.41,-2.31 2.83,-4.9 2.48,-10.16 -0.59,-9.1 -7.87,-18.22 -18.55,-20.62 -4.2,-0.94 -7.94,-0.93 -12.31,-0.85 -6.34,0.1 -5.26,-1.55 -8.43,-4.6 -4.16,-4 -7.92,-8.13 -15.46,-10.7 -10.31,-3.51 -21.71,-1.75 -28.14,7.65 -0.97,1.41 -1.56,2.52 -2.32,4.07 -1.7,3.48 -0.73,2.9 -3.2,3.49 -12.14,2.92 -22.08,11.96 -22.04,23.74 0.01,2.39 0.72,3.94 0.84,6.06z"/>
    <path class="fil2" d="M422.65 166.49c-4.22,-0.01 -7.64,-0.77 -10.69,-2.59 3.65,0.34 7.36,0.96 11.01,0.77 5.29,0 8.99,-1.18 13.8,-1.64 -0.78,0.85 -1.65,1.12 -2.78,1.52 -1.25,0.44 -2.19,0.7 -3.5,0.99 -2.41,0.54 -5.13,0.95 -7.84,0.95zm-6.35 -29.6c0.23,2.02 3.01,5.61 3.43,10.95 0.29,3.6 0.23,10.77 -1.54,12.99l-2.67 -3.03c-0.74,-0.68 -0.86,-0.64 -1.6,-1.27 -7.61,-6.57 -13.15,-5.12 -18.81,-6.41 -3.63,-0.83 -5.04,-2.91 -8.33,-3.36 -4.88,8.48 -7.38,29.74 -6.67,40.43 0.49,7.38 1.42,13.48 3.36,20.21 1.47,5.13 5.84,16.28 6.19,17.69 15.93,1.32 35.33,-4.33 48.07,-12.78 5.27,-3.5 7.12,-5.04 11.7,-9.03 2.78,-2.42 2.63,-2.65 2.89,-7.3 0.52,-9.2 -2.59,-16.61 -5.6,-25.06l-11.26 -29.76c2.68,2.57 7.33,14.11 8.23,14.93l1.16 1.13c0.35,0.47 0.31,0.59 0.74,1.14l2.86 2.86c0.46,0.36 0.63,0.41 1.12,0.8l1.42 1.12c3.32,2.46 6.22,4.12 10.59,5.08 16.41,3.64 18.32,-10.04 16.9,-10.69 -0.71,0.18 0.07,-0.16 -1,0.45 -0.34,0.19 -0.59,0.37 -0.99,0.6 -0.82,0.48 -1.49,0.79 -2.36,1.15 -12.83,5.28 -16.61,-4.91 -20.78,-10.42 -3.05,-4.03 -2.64,-4.38 -3.4,-10.23 -1.72,-0.5 -2.76,-2.89 -5.44,-5.15l-5.8 -4.75c-0.58,-0.45 -0.96,-0.73 -1.66,-1.19 -3.19,-2.11 -4.9,-3.21 -8.94,-3.85 -2.57,-0.41 -3.21,-0.88 -4.77,0.06 -0.92,2.81 -1.15,4.5 -2.6,7.01 -0.61,1.05 -1.38,2.12 -2.08,3.04 -0.86,1.14 -1.97,1.5 -2.36,2.64z"/>
    <path class="fil1" d="M622.94 193.4c0,3.22 -0.11,4.15 0.64,7.34 -2.64,-1.76 -2.35,-6.37 -0.86,-8.83l0.54 -0.74c-0.08,1 -0.32,1.14 -0.32,2.23zm153.4 -18.93l0 2.57c-0.43,11.32 -6.47,24.33 -12.83,30.64 -5.43,5.38 -11.85,8.73 -20.33,8.69 -9.2,-0.04 -15.21,-2.03 -21.29,-8.05 -2.69,-2.67 -4.1,-5.23 -5.6,-9.07 -1.55,-3.96 -1.5,-7.5 -1.5,-12.86l-1.78 4.6c-0.52,1.84 -1.09,3.12 -1.12,5.28 -0.02,2.43 0.53,3.47 1.7,4.71l2.85 3.22c2.03,2.48 3.44,5.73 0.82,8.9 -4.73,5.73 -19.01,2.32 -24.27,-8.1 -5.41,-10.74 -2.59,-13.76 -2.44,-20.52 -2.95,0.68 -12.41,9.91 -14.35,12.43 -1.21,1.59 -2.66,2.97 -3.97,4.65l-8.02 9.83c-3.32,3.33 -8.18,5.16 -11.49,0.71 -5.73,-7.71 -0.38,-20.59 2.07,-27.99 1.63,-4.93 5.98,-15.35 6.11,-20.67 0.18,-6.78 -0.44,-1.69 0.95,-7.67 -2.49,1.67 -5.42,5.24 -11.48,3.83 0.54,0.81 0.78,0.83 1.38,1.8 7.3,11.74 1.13,23.02 -2.62,35.23 -0.5,1.62 -0.89,3.06 -1.31,4.75 -1.34,5.27 -1.3,10.31 -4.54,13.33 -3.74,3.49 -9.1,1.01 -12.59,-1.94 -1.12,-0.95 -1.8,-2 -2.97,-2.78 -0.93,11.2 -22.74,6.13 -26.8,-9.87 -1.71,-6.76 0.33,-10.45 0.33,-14.37l-4.67 4.26c-0.06,0.07 -0.25,0.26 -0.31,0.32l-2.43 2.68c-0.88,0.87 -1.56,1.44 -2.34,2.44l-11.08 13.48c-0.77,0.92 -1.4,1.77 -2.2,2.58 -1.69,1.7 -2.95,3.51 -5.76,3.85 -5.43,0.65 -7.88,-5.7 -7.88,-11.43 -0.92,0.61 -1.23,1.13 -2.3,1.85 -0.94,0.64 -1.47,1.07 -2.39,1.75 -1.71,1.27 -3.38,2.06 -5.18,3.11 -16.38,9.55 -34.99,7.4 -45.63,-8.62 -12.4,-18.67 -4.33,-37.73 7.56,-53.68 0.7,-0.93 1.1,-1.4 1.82,-2.32 0.68,-0.87 1.19,-1.21 1.83,-2.01 0.82,-1.02 1.08,-1.18 2.06,-2.08 11.05,-10.13 25.63,-21.22 42.01,-18.47 7.5,1.26 14.33,4.95 17.13,11.89 0.35,0.87 0.58,2.12 0.95,2.88 1.18,-0.87 3.55,-6.67 8.66,-10.15 1.73,-1.18 4.24,-2.55 7.48,-1.85 9.67,2.09 4.61,21.53 2.74,28.33l-1.98 7.27c3.38,-2.27 5.91,-4.18 10.32,-5.62 8.71,-2.85 18.25,0.53 19.01,10.74 0.61,8.21 -1.52,11.27 -1.58,14.34 0.04,-0.07 0.09,-0.16 0.11,-0.21 0.02,-0.04 0.09,-0.15 0.12,-0.2l7.05 -13.04c4.52,-6.52 4.29,-7.61 10.26,-10.47 -1.45,-2.16 -2.86,-3.31 -2.9,-7.02 -0.06,-7.13 8.27,-12.55 14.15,-14.9 5.63,-2.26 11.52,-0.92 12.55,4.81 0.94,5.18 -3.39,11.06 -5.31,13.92 1.65,-0.44 2.35,-2.05 6.34,-0.91 5.21,1.48 10.15,8.85 10.25,13.34 3.69,-2.46 3.92,-3.91 10.19,-7.67 7.11,-4.27 20.97,-6.83 25.96,2.15 3.2,5.77 1.8,11.03 1.8,15.09l0.75 -1.16c2.92,-5.54 8.55,-10.45 13.6,-13.83 11.55,-7.72 33.4,-11 41.77,3.52 1.62,2.81 2.42,6.16 2.56,9.76zm-149.25 6.82l0 0zm124.34 -22.48c8.91,-0.98 15.41,2.38 18.64,7.68 7.01,11.48 -3.54,48.43 -30.4,45.73 -17.81,-1.8 -24.11,-18.15 -19.67,-31.16 2.22,-6.52 7.58,-11.64 11.95,-14.82 5.56,-4.04 11.07,-6.51 19.48,-7.43zm-106.47 2.61c2.31,-0.75 3.84,2.58 4.72,4.29 5.05,9.84 -3.91,25.63 -6.35,37.87 -1.16,5.75 -1.47,11.87 -8.38,7.48 -3.38,-2.16 -6.47,-6.26 -7.67,-11.51 -1.46,-6.41 0.45,-10.1 2.67,-15.08 2.52,-5.64 10.88,-21.71 15.01,-23.05zm50.74 17.25c-3.34,-1.32 -11.87,5.42 -13.6,6.92 -3.51,3.03 -3.15,3.11 -5.38,5.14 -3.16,2.87 -11.79,13.6 -14.49,17.08 -5.42,6.97 -9.09,0.48 -8.01,-7.34 1.5,-10.93 7.46,-21.5 9.85,-32.28 1.17,-5.24 0.47,-7.97 0.94,-9.57 1,-3.45 4.81,-1.22 6.47,0.27 6.1,5.49 4.14,12.28 4.61,16.1l1.75 -1.31c0.61,-0.51 1,-0.75 1.58,-1.3 7.18,-6.79 14.49,-13.74 25.18,-13.37 7.35,0.26 9.66,4.99 9.59,12.4 -0.1,10.33 -7.27,19.61 -6.12,27.08 0.51,3.29 2.49,4.92 4.18,6.7 6.71,7.11 -2.43,8.25 -8.56,5.06 -16.23,-8.45 -7.29,-29.41 -7.99,-31.58zm-126.98 8.68c-6.86,-3.63 -17.05,7.33 -27.75,7.33 -3.97,0 -5.79,0.36 -8.85,-2.94 -6.73,-7.23 2.69,-24.39 6.94,-29.91 3.81,-4.97 7.29,-8.55 13.08,-11.16 1.76,-0.8 4.42,-1.28 7.01,-1.28 0,3.32 0.47,5.66 1.49,8.08 2.49,5.9 9.8,5.37 13.9,1.25 0.78,-0.77 0.75,-1.06 1.84,-1.35 -0.1,1.21 -0.48,2.26 -0.73,3.73 -2.24,13.17 -4.69,16.62 -6.93,26.25zm93.45 -31.9l-0.32 0.32 0.32 -0.32zm0 0l0 0zm0.64 -0.95l0 0zm0.31 -0.32l-0.31 0.32 0.31 -0.32zm-107.51 -26.93c8.77,-1.25 16.65,1.64 20.43,6.53 8.83,11.38 -5.43,27.37 -10.63,23.71 -2.89,-2.04 -1.59,-7.91 -3.22,-10.5 -1.69,-2.69 -8.11,-1.15 -10.98,-0.13 -3.16,1.12 -6.6,3.57 -8.49,5.23 -4.37,3.85 -8.74,9.3 -11.92,15.52 -11.99,23.49 -0.76,38.6 24.21,27.06 2.27,-1.05 6.88,-3.66 9.32,-4.1 6.03,-1.1 1.28,6.28 0.23,7.6 -2.01,2.52 -4.23,4.37 -7.29,6.43 -4.51,3.04 -13.16,7.29 -19.79,7.72 -17.06,1.12 -27.11,-10.64 -30.26,-24.69 -1.86,-8.34 0.85,-16.29 3.95,-22.76 2.82,-5.89 6.97,-12.61 10.65,-16.76 8.22,-9.26 21.54,-19.11 33.79,-20.86zm103.7 11.21c2.83,-0.71 5.29,0.35 5.34,3.28 0.06,3.6 -4.16,9.93 -6.42,12.01 -6.48,5.96 -17.44,-0.94 -10.57,-8.34 2.05,-2.21 8.07,-6.05 11.65,-6.95zm-52.2 39.8c-3.9,0.2 -7.62,3.87 -9.7,5.56 -1.89,1.55 -4.1,4.32 -5.7,5.78 -2.11,1.93 -6.89,7.55 -8.68,9.82 -2.29,2.88 -4.39,5.38 -6.55,8.12 -2.77,3.51 -6.04,6.4 -7.69,0.16 -1.47,-5.6 6.57,-28.33 8.38,-35.19 2.08,-7.93 2.91,-16.78 5.31,-24.34 2.13,-6.71 7.39,-15.41 12.03,-17.64 9.51,-4.55 4.7,16.18 3.65,20.6 -0.93,3.96 -2.04,7.98 -3.17,11.76 -0.93,3.13 -2.9,8.41 -3.32,11.33 1.38,-1 6.35,-6.45 11.24,-10.09 9.92,-7.39 24.83,-8.85 21.51,10.71 -1.89,11.15 -8.74,18.92 -6.23,24.91 1.06,2.53 2.9,4.14 4.31,6.22 4.31,6.42 -2.98,8.13 -9.61,3.86 -3.81,-2.44 -7.92,-6.45 -8.56,-12.9 -0.7,-7.07 1.79,-12.43 2.78,-18.67z"/>
    <path class="fil3" d="M41.33 129.16c-0.43,1.88 -9.08,21.65 -10.7,25.6 -8.11,19.84 -13.97,35.63 -14.58,58.09 -0.12,4.42 -0.28,13.67 3.16,15 4.5,1.73 8.76,-4.68 10.23,-7.31 8.34,-14.95 13.51,-36.82 17.14,-55.53 1.99,-10.27 3.75,-20.7 5.25,-31.17 0.86,-6 0.18,-5.51 3.3,-5.34 7.22,0.41 16.24,1.17 19.97,7.43 5.6,9.43 -6.17,19.48 -10.42,22.58 -3.47,2.53 -7.97,4.1 -11.6,6.58 -5.48,3.74 -6.37,8.11 3.19,6.01 15.6,-3.42 39.24,-14.36 39.59,-33.19 0.43,-23.09 -27.55,-28.16 -46.05,-26.17 -11.19,1.21 -19.41,5.12 -25.35,11.02 -1.49,1.48 -3.3,2.66 -3.15,5.91 0.45,9.15 17.45,0.89 20.02,0.49z"/>
    <path class="fil2" d="M375.5 174.09c3.51,0.9 2.36,4.17 1.56,5.29 -0.79,1.09 -4.83,4 -6.6,-0.23 -0.2,-1.91 -0.83,-2.87 0.7,-4.39 1.35,-1.33 2.63,-0.8 4.34,-0.67zm3.27 -13.54c0.57,1.11 1.6,1.02 0.06,2.39 -1.59,1.43 -4.83,1.67 -5.61,-0.42 -0.59,-1.61 -0.95,-2.76 -0.01,-3.56 0.59,-1.46 1.87,-2.99 4.12,-2.57 2.42,0.44 1.6,2.44 1.44,4.16zm-55.62 -21.91c-0.36,1.25 -1.83,1.8 -2.63,4.29 -0.93,2.9 0.3,6.35 1.96,8.7l1.57 1.96c5.35,5.48 14.82,6.11 22.39,0.61l0.72 -0.56c0.55,-0.45 1.68,-1.64 2.37,-1.02 0.88,-2.29 6.78,-10.32 10.33,-11.18 -0.66,1.26 -1.22,1.45 -2.29,2.51 -11.68,11.63 -17.32,37.93 -17.41,53.59 -0.06,9.12 0.45,8.73 6.21,12.83 11.6,8.26 26.73,13.83 41.9,14.64 -0.73,-2.53 -2.38,-5.99 -3.43,-8.47 -6.65,-15.68 -7.44,-34.2 -4.67,-50.96 1.74,-10.51 2.88,-10.58 5,-18.38 -2.06,-0.22 -3.57,1.12 -5.22,1.9 -1.58,0.74 -3.94,1.25 -5.76,1.38 -9.36,0.67 -2.74,-1.3 -11.85,2.3 -1.35,0.1 -0.09,0.1 -0.72,-0.2 -0.1,-7.86 3.12,-13.88 7.7,-16.56 -0.92,-1.85 -1.21,-0.57 -3.63,-5.74 -5.06,1.48 -11.5,6.66 -16.12,9.81l-5.19 3.19c0.42,2.68 0.95,5.3 0.8,8.09 -1.52,-2.43 -1.95,-14.03 -8.6,-23.38 -0.74,-1.04 -1.53,-2.24 -2.29,-3.13 -0.87,-1.03 -1.33,-1.91 -3.24,-1.96 0.68,4.27 1.75,6.68 -0.94,10.49 -1.78,2.52 -3.78,3.69 -6.96,5.25z"/>
    <path class="fil2" d="M396.5 280.79l0 0zm-7.15 11.8l-2.71 0c-1.8,-0.13 -3.64,-0.48 -5.53,-0.88 -4.89,-1.02 -10.3,0.4 -13.02,-1.01 -1.56,-0.8 -2.69,-2.3 -2.84,-4.17 -1.39,0.32 -1.45,0.8 -2.77,1.38 -7.03,3.08 -13.86,-2.53 -18.6,-3.3 -2.38,-0.38 -5.2,-0.64 -7.04,-1.57 -2.88,-1.45 -4.43,-5.33 -1.58,-9.27 1.88,-2.62 6.83,-5.85 9.26,-6.05 -0.4,-1.48 -1.05,-1.18 -2.07,-2.41 -1,-1.22 -1.11,-1.94 -1.76,-2.7 -0.62,2.64 -4.44,6.5 -6.07,8.61 -3.03,3.95 -3.99,7.66 -7.01,7.66 -7,0 -8.8,-7.21 -7.65,-12.12 -2.76,0.23 -7.11,2.24 -12.95,-0.13l-4.59 -2.42c-0.85,0.09 -10.23,9.17 -15.25,3.76 -3.2,-3.44 -1.27,-9.58 0.96,-11.99 1.59,-1.7 3.59,-2.79 5.68,-3.89 0,-3.52 1.68,-6.7 5.1,-6.7 2.74,0 1.76,0.99 3.18,0.34l5.88 -4.36c4.06,-2.71 7.77,-4.83 11.12,0.1 0.82,1.22 0.64,0.86 2.32,1.19 5.43,1.08 9.07,5.79 9.07,11.34 0.88,-0.23 1.11,-0.51 1.83,-1.04 0.52,-0.39 1.45,-0.89 1.7,-1.17 0.79,-0.9 0.9,-2.89 1.69,-4.05 2.3,-3.37 15.83,-6.37 15.83,2.44 0,2 -2.65,4.62 -3.19,5.42l5.71 1.63c5.59,1.11 13.41,1.07 16.3,5.38 1.04,-0.24 0.9,-0.45 1.95,-0.6 2.08,-0.3 4.75,0.27 6.65,0.3l9.26 -0.33c3.4,0 6.4,-0.3 9.31,1.85 2.39,1.77 1.92,3.33 2.49,4.52 1.21,-0.81 1.56,-1.87 2.79,-2.95 8.53,-7.49 15.52,-3.63 17.94,-3.42 0.61,-2.29 3.47,-4.15 6.38,-4.15 1.75,0 2.52,0.65 3.82,0.96 1.68,-2.51 6.33,-6.06 10.53,-6.06 2.87,0 1.76,0.15 3.83,0.63 -0.39,-1.43 -1.28,-1.62 -1.28,-3.82 0,-4.98 4.34,-10.85 8.29,-10.85 3.71,0 5.74,1.97 5.74,5.74 0,3.94 0.02,5.26 -2.23,8.61 0.52,0.79 0.8,1.39 1.6,1.92 0,-5.4 4.56,-12.82 8.34,-15.26 1.33,-0.86 2.15,-0.74 3.42,-1.36 1.46,-0.72 0.83,-1.52 2.2,-2.59 3.61,-2.81 7.9,-0.02 9.64,3.9l3.19 8.29c2.57,0 4.69,0.32 7.65,0.32 2.61,4.93 2.3,9.06 -2.61,12.38 -2.87,1.96 -3.61,1.97 -8.23,1.97 -0.48,2.03 -1.96,4.37 -3.26,5.68 -3.18,3.18 -12.11,6.49 -16.93,0.15 -0.31,-0.41 -0.58,-0.72 -0.86,-1.04 0.07,3.14 1.27,2.86 1.27,8.29 0,2.56 -3.31,4.14 -6.06,4.14 -6.29,0 -12.51,-7.83 -10.84,-14.98 -1.49,0.78 -1.71,0.73 -2.55,2.23 -3.48,6.22 0.88,17.1 -7.19,20.24 -4.35,1.69 -7.93,0.22 -8.76,-3.34 -1.88,2.17 -3.58,3.7 -6.27,5.21 -1.84,1.03 -5.98,2.45 -8.72,2.45 -5.9,0 -8.66,-1.08 -12.44,-5.43 -0.43,1.86 -1.79,3.48 -3.24,4.42 -1.9,1.23 -3.84,1.8 -5.82,1.96zm7.15 -11.8c-1.88,-0.15 -3.37,-0.32 -5.74,-0.32 0.61,-0.9 0.57,-0.73 1.46,-1.41 0.72,-0.56 0.86,-0.81 1.51,-1.36l3.09 -2.65c-0.16,1.88 -0.32,3.38 -0.32,5.74zm-29.98 -0.64c-0.56,-2.11 -3.74,-2.87 -6.38,-2.87 0.7,-0.95 3.64,-2.18 4.81,-2.85l4.76 -3.21c0.67,1 0.59,1.1 1.71,1.8 0.77,0.48 1.56,0.87 2.44,1.07 -1.19,1.04 -4.53,3.25 -5.5,4.39 -0.89,1.03 -0.48,1.31 -1.84,1.67zm42.19 0.06c1.85,5.71 10.25,-0.94 13.61,0.85 0.29,5.39 -22.96,13.37 -21.91,-3.74 0.35,-5.66 7.04,-12.49 13.65,-12.68 7.84,-0.23 13.55,7.62 5,12.55 -3.91,2.26 -6.02,1.9 -10.35,3.02zm48.65 -4.87c-4.02,1.9 -8.2,-2.3 -8.96,-5.28 -0.38,-1.5 -1.26,-21.99 5.03,-13.67 2.44,3.24 2.06,7.93 2.83,12.48 0.33,1.97 1.4,4.71 1.1,6.47zm-73.21 12.98c-9.36,-1.82 -11.24,-0.28 -14.58,-1.06 -3.75,-6.95 12.72,-11.83 15.21,-15.4 -2.89,-0.24 -5.66,-0.25 -8.38,-0.95 -1.13,-0.28 -2.36,-0.7 -3.13,-1.33 -0.54,-0.44 -1.64,-1.87 -1.21,-3.03 0.57,-1.58 6.41,-0.37 8.18,-0.41 4.26,-0.09 14.74,-1.66 15.66,1.96 0.58,2.3 -2.46,4.53 -3.41,5.5 -1.6,1.63 -3,2.64 -4.82,4.1 -1.69,1.35 -3.53,2.46 -5.08,3.81 0.65,0.44 4.32,1.76 5.3,2.15 3.45,1.39 3.95,0.25 5.99,0.71 2.15,0.48 -0.34,5.77 -9.73,3.95zm-39.17 -29.06c1.78,-0.5 3.65,0.58 5.34,1.07 6.09,1.75 28.35,2.31 11.35,11.46 -2.21,1.2 -7.22,3.79 -9.63,4.42 0.65,1.06 3.77,2.82 4.72,3.5 2.57,1.83 3.57,0.95 6.24,2.04 0.08,2.34 -2.98,3.27 -5.41,3.2 -4.31,-0.14 -7.84,-3.28 -13.02,-4.18 -2.34,-0.4 -5.19,-0.49 -6.68,-1.88 -0.78,-3.67 4.27,-6.15 7.23,-7.37l10.95 -3.77 -7.5 -2.82c-2.13,-0.98 -5,-2.62 -3.59,-5.67zm85.25 24.74c-2.77,-3.7 -0.74,-9.7 -4.03,-15.99 -0.84,-1.61 -2.12,-2.77 -1.92,-4.85 3.06,-3.08 4.77,-0.42 7.3,0.79 0.82,-0.56 1.21,-1.39 1.8,-2.1 6.52,-7.83 11.93,-5.35 11.55,-2.81 -0.43,2.81 -8.1,1.83 -8.74,14.74 -0.25,4.98 0.32,11.2 -5.96,10.22zm-102.94 -8.96c-2.68,-0.14 -3.65,-2.7 -3.73,-5.41 -0.11,-3.79 0.75,-4.56 2.61,-6.54 1.41,-1.51 7.96,-7.8 10.69,-7.77 3.74,4.45 -3.32,10.81 -6.38,14.95 -0.94,1.28 -2.13,3.75 -3.19,4.77zm-25.51 -24.18c1.07,-0.55 2.77,-2.12 3.82,-2.92 1.77,-1.35 5.76,-4.49 7.59,-5.22 2.88,-1.13 2.45,1.22 2.52,3.29 5.14,0.04 8.32,0.98 10.15,4.64 2.24,4.5 -0.91,7.87 -3.13,9.63 -10.79,8.55 -18.5,-0.35 -20.61,-1.08 -1.6,1.3 -8.41,7.58 -11.82,6.34 -2.19,-1.88 -0.12,-6.06 1.29,-7.38 1.84,-1.73 4.44,-2.64 6.03,-4.12 0.25,-2.16 -0.3,-3.39 0.91,-4.78 2.03,0.12 1.38,0.88 3.25,1.6zm176.72 6.99c-0.93,3.5 -1.84,6.51 -4.16,8.29 -2.18,1.66 -7.12,2.98 -9.59,0.94 -5.01,-4.13 -4.25,-13.36 -1.29,-18.84 1.53,-2.83 3.09,-5.09 6.4,-6.03 2.97,-0.84 2.15,-0.43 3.45,-2.63 1.06,-1.78 2.88,-0.59 3.66,0.61 1.28,1.99 2.23,6.38 3.58,8.85 2.19,4.03 5.2,2.49 7.77,3.04l0.53 0.18c0.06,0.03 0.19,0.2 0.23,0.13 0.16,-0.25 2.33,2.74 -3.01,5.71 -3.27,1.81 -4.74,-0.12 -7.57,-0.25zm-135.81 -9.34c8.33,-1.88 4.18,4.37 0.18,5.76 -3.51,1.21 -8.38,-3.91 -0.18,-5.76zm109.09 -5.65c3.79,-2.03 3.45,8.15 -1.11,8.54 -2.7,0.22 -3.25,-2.03 -2.33,-4.24 0.86,-2.08 1.97,-3.51 3.44,-4.3z"/>
    <path class="fil2" d="M341.99 60.09c-0.12,-2.12 -0.83,-3.67 -0.84,-6.06 -0.04,-11.78 9.9,-20.82 22.04,-23.74 2.47,-0.59 1.5,-0.01 3.2,-3.49 0.76,-1.55 1.35,-2.66 2.32,-4.07 6.43,-9.4 17.83,-11.16 28.14,-7.65 7.54,2.57 11.3,6.7 15.46,10.7 3.17,3.05 2.09,4.7 8.43,4.6 4.37,-0.08 8.11,-0.09 12.31,0.85 10.68,2.4 17.96,11.52 18.55,20.62 0.35,5.26 -2.07,7.85 -2.48,10.16 0.9,0.91 2.07,1.69 3,2.42 2.89,2.3 6.26,4.71 8.8,7.15l7.7 8.24c7.8,9.85 12,16.41 17.06,30.13 8.36,22.7 6.71,49.73 -2.5,70.95 -8.59,19.81 -23.32,35.32 -39.58,44.94 -46.01,27.22 -104.31,11.77 -131.55,-31.23 -8.83,-13.94 -14.62,-30.67 -15.19,-48.07 -0.11,-3.48 -0.14,-6.74 0.06,-10.22 0.12,-1.99 1.39,-8.35 0.29,-9.47 -1.17,-1.2 -7.34,0.14 -9.44,0.29 -3.43,0.24 -6.74,0.31 -10.23,0.15 -12.85,-0.6 -24.83,-7.85 -19.66,-20.19 2.3,-5.48 5.35,-8.41 11.02,-10.02 6.08,-1.72 7.49,-6.05 12.02,-9.05 7.25,-4.82 12.06,-0.9 17.61,-3.43 2.89,-1.32 4.5,-2.17 8.32,-2.07 3.07,0.08 6.85,1.37 9.28,1.24 1.27,-1.12 1.9,-2.28 2.9,-3.55 0.87,-1.11 2.04,-2 2.98,-3.08l6.03 -6.42c3.06,-2.86 10.28,-8.89 13.95,-10.63zm42.88 -50.39l4.36 0c7.41,0.52 14.67,3.6 20.39,8.25 2.2,1.78 4.07,3.93 6.24,5.88 3.81,3.4 -0.58,2.75 8.11,2.59 0.78,-0.02 0.51,0.07 1.56,0.16 1.25,0.1 2.53,-0.06 3.78,0.07 7.4,0.77 15.52,4.15 19.82,9.84 3.06,4.04 6.37,10.03 6.37,15.63 0,5.14 -0.69,4.73 -1.59,8.61 0.67,0.92 3.13,2.54 4.22,3.44l7.16 6.22c0.42,0.39 0.59,0.55 0.98,0.94l5.4 6.09c4.93,6.09 10.13,13.7 13.39,20.73 2.84,6.15 3.25,8 5.39,13.74 5.51,14.8 5.9,37.51 1.92,53.32 -3.26,12.95 -4.2,13.68 -8.39,23.18 -1.88,4.26 -6.87,11.49 -9.79,15.41 -3.33,4.45 -9.73,11.12 -13.81,14.58 -3.03,2.56 -7.46,6.23 -10.83,8.3 -7.95,4.88 -14.05,8.32 -23.35,11.42 -1.48,0.49 -3.37,1.07 -4.89,1.48 -6.23,1.7 -9.01,2.2 -15.69,3.13 -4.63,0.64 -6.74,0.23 -9.07,0.49 -5.09,0.58 -2.21,0.04 -5.46,-0.05 -4.09,-0.12 -4.11,0.2 -9.04,-0.53 -19.23,-2.87 -33.97,-8.36 -49.47,-20.05 -7.82,-5.9 -16.23,-14.77 -21.61,-22.73 -4.83,-7.13 -7.88,-12.54 -11.01,-20.56 -0.66,-1.69 -1.15,-2.9 -1.73,-4.65 -1.03,-3.1 -1.94,-6.35 -2.77,-9.67 -1.61,-6.46 -2.61,-14.66 -2.61,-22.58l0.64 -11.8c-3.45,0 -6.15,0.63 -9.89,0.63 -8.59,0 -15.16,-0.06 -22.11,-4.36 -2.32,-1.43 -4.13,-3.06 -5.64,-5.2 -2.72,-3.87 -2.87,-5.79 -2.87,-10.21 0,-5.41 4.3,-11.89 7.38,-14.31 7.97,-6.26 6.26,-0.76 13.59,-8.09 12.24,-12.25 17.58,-5.16 24.11,-8.42 7.76,-3.87 11.64,-1.07 16.8,-1.07 0.76,-1.44 6.59,-7.73 7.88,-9.02 3.85,-3.82 10.41,-9.88 15.08,-12.35 -0.27,-1.14 -0.64,-2.79 -0.64,-4.15 0,-2.86 1.23,-7.51 2.14,-9.66 6.32,-14.96 21.98,-17.25 22.86,-17.96 0.46,-0.38 1.58,-2.96 2.01,-3.73 2.91,-5.23 6.71,-8.89 12.21,-11.07 2.75,-1.09 5.6,-1.7 8.47,-1.91z"/>
    <path class="fil1" d="M148.69 196.28l0 0zm29.98 -38.1c3.42,-1.03 6.95,-4.06 11.41,-5.36 4.96,-1.45 9.03,-0.59 13.23,1.6 8.11,4.22 10.56,12.08 7.06,23.17 -3.21,10.17 -7.02,13.96 -14.38,18.78 -12.18,7.97 -22.15,3.83 -27.44,4.48 -0.7,1.24 -3.24,12.38 -8.05,20.32 -5.14,8.5 -10.64,10.24 -13.73,-0.31 -2.58,-8.83 1.99,-14.23 5.19,-21 2.54,-5.4 -0.94,-5.84 -2.37,-9.9 -2.56,-7.24 3.74,-4.09 7.79,-4.56 1.39,-2 7.76,-24.08 13.38,-31.49 1.37,-1.81 3.52,-1.7 5.11,-0.13 1.14,1.12 1.65,3.03 2.8,4.4zm75.72 36.74c-1.62,0.24 -6.3,4.2 -9.04,5.84 -3.12,1.87 -6.57,3.59 -10.86,3.62 -5.78,0.04 -16.23,-3.72 -18.67,-10.16 -2.84,-7.5 1.3,-17.67 4.69,-22.45 4.12,-5.81 8.45,-9.94 14.93,-13.76 5.38,-3.18 14.96,-7.48 22.58,-4.72 5.86,2.12 6.11,3.46 10.79,0.77 4.44,-2.56 6.68,0.66 6.59,5.54 -0.05,2.35 -2.4,8.59 -3.14,11.32 -1,3.66 -2.18,7.71 -2.64,11.73 -0.55,4.71 0.31,6.46 4.23,9.99l7.8 6.51c-1.68,7.37 -9.44,7.69 -15.63,6.37 -5.44,-1.17 -9.24,-6.13 -11.63,-10.6zm-136 0.1c-3.25,0.31 -9.57,8.88 -19.44,9.3 -4.02,0.17 -8.42,-1.38 -11.6,-2.84 -3.41,-1.58 -5.86,-3.66 -7.28,-7.07 -3.12,-7.51 0.98,-17.52 4.44,-22.46 4.05,-5.78 8.28,-10.04 14.78,-13.91 5.21,-3.09 14.97,-7.28 22.17,-5.01 6.52,2.05 6.56,3.87 10.83,1.33 4.64,-2.74 7,-0.26 7.15,4.93 0.08,2.52 -2.23,8.58 -3.04,11.29 -1.11,3.71 -2.2,7.72 -2.66,11.67 -1.11,9.66 7.27,11.84 11.8,16.9 -1.11,6.73 -8.1,7.91 -15.22,6.53 -7.09,-1.37 -9.6,-7.93 -11.93,-10.66zm30.3 1.26c-1.01,-0.27 -1.48,-0.95 -2.27,-1.55 -2.43,-1.83 -6.24,-4.92 -8.04,-7.28 -1.84,-2.41 -0.5,-6.6 0.13,-9.65 2.08,-10.01 7.23,-17.28 3.28,-24.69 -2.4,-4.5 -6.02,-4.68 -10.1,-2.86 -3.1,1.38 -1.49,1.95 -5.32,0.42 -2.16,-0.87 -3.56,-1.37 -6.08,-1.89 -7.93,-1.64 -19.19,3.42 -23.84,6.41 -6.76,4.35 -11.17,8.65 -15.62,15.32 -2.1,3.13 -3.9,6.41 -4.78,10.53 -3.16,14.82 2.45,23.66 18.33,26.81 10.36,2.05 16.62,-3.65 22.74,-7.75 4.72,7.05 9.62,9.91 18.5,9.9 5.27,-0.01 5.79,-1.1 7.97,-1.6 -6.97,14.53 11.1,42.92 25.16,4.1 0.85,-2.34 2.01,-5.15 2.59,-7.61 8.76,0 15.14,1.66 24.69,-4.01l4.46 -2.88c7.52,-4.97 8.29,-8.82 10.71,-11.61 0,3.44 -0.12,5.58 0.63,8.3 0.56,2.01 1.95,4.32 3.27,5.66 6.18,6.26 17.66,9.78 26.76,6.5 1.9,-0.69 4.24,-1.99 5.92,-3.02 0.74,-0.45 0.73,-0.49 1.33,-0.9 0.5,-0.34 0.87,-0.52 1.37,-0.87 1.09,-0.75 1.61,-1.32 2.82,-1.96 1.03,1.94 2.87,4.25 4.6,5.61 2.35,1.84 3.64,2.78 6.96,3.57 5,1.19 12.89,1.21 16.87,-2.43 1.66,-1.51 4.36,-6.65 4.42,-9.62 -1.33,-0.35 -7,-5.11 -8.39,-6.28 -1.09,-0.92 -1.73,-1.3 -2.68,-2.42 -2.37,-2.8 -1.87,-3.53 -1.19,-7.7 0.46,-2.79 1.13,-5.81 1.94,-8.28 0.85,-2.6 1.54,-5.14 2.31,-7.57 1.57,-4.93 1.92,-10.85 -2.6,-14.55 -4.59,-3.77 -8.96,1.29 -11,1.13 -3.62,-0.3 -9.91,-7.62 -27.61,1.24 -2.47,1.23 -4.14,2.19 -6.27,3.61 -4.79,3.18 -6.7,5.03 -10.6,9.5 -1.58,1.81 -3.69,5.29 -4.39,5.81 0,-8.2 -0.33,-12.39 -6.14,-17.79 -3.97,-3.69 -11.43,-6.53 -17.74,-5.45 -2.51,0.42 -4.06,0.96 -6.11,1.86l-5.41 2.56c-0.85,-0.62 -1.91,-2.67 -4.05,-3.6 -6.9,-3 -10.61,4.7 -12.76,9.75l-6.61 16.68c-0.72,1.86 -1.34,4.3 -2.1,5.88 -4.19,-2.02 -12.31,0.72 -8.71,9.98 0.36,0.92 0.62,1.66 1.11,2.4 0.66,1.01 0.95,1.17 1.54,2.29z"/>
    <path class="fil3" d="M555.61 127.25c-12.25,1.75 -25.57,11.6 -33.79,20.86 -3.68,4.15 -7.83,10.87 -10.65,16.76 -3.1,6.47 -5.81,14.42 -3.95,22.76 3.15,14.05 13.2,25.81 30.26,24.69 6.63,-0.43 15.28,-4.68 19.79,-7.72 3.06,-2.06 5.28,-3.91 7.29,-6.43 1.05,-1.32 5.8,-8.7 -0.23,-7.6 -2.44,0.44 -7.05,3.05 -9.32,4.1 -24.97,11.54 -36.2,-3.57 -24.21,-27.06 3.18,-6.22 7.55,-11.67 11.92,-15.52 1.89,-1.66 5.33,-4.11 8.49,-5.23 2.87,-1.02 9.29,-2.56 10.98,0.13 1.63,2.59 0.33,8.46 3.22,10.5 5.2,3.66 19.46,-12.33 10.63,-23.71 -3.78,-4.89 -11.66,-7.78 -20.43,-6.53z"/>
    <path class="fil3" d="M172.27 188.37c-1.95,-7.48 13.22,-28.87 20.13,-20.81 6.74,7.87 -11.6,25.14 -20.13,20.81zm6.4 -30.19c-1.15,-1.37 -1.66,-3.28 -2.8,-4.4 -1.59,-1.57 -3.74,-1.68 -5.11,0.13 -5.62,7.41 -11.99,29.49 -13.38,31.49 -4.05,0.47 -10.35,-2.68 -7.79,4.56 1.43,4.06 4.91,4.5 2.37,9.9 -3.2,6.77 -7.77,12.17 -5.19,21 3.09,10.55 8.59,8.81 13.73,0.31 4.81,-7.94 7.35,-19.08 8.05,-20.32 5.29,-0.65 15.26,3.49 27.44,-4.48 7.36,-4.82 11.17,-8.61 14.38,-18.78 3.5,-11.09 1.05,-18.95 -7.06,-23.17 -4.2,-2.19 -8.27,-3.05 -13.23,-1.6 -4.46,1.3 -7.99,4.33 -11.41,5.36z"/>
    <path class="fil2" d="M367.45 30.11c-0.21,0.13 -0.17,0.04 -0.41,0.52 -0.18,0.35 -0.31,0.8 -0.4,1.18 -0.94,3.64 -0.27,6.1 -0.62,9 -0.69,-3.25 -0.73,-3.31 -0.77,-7.07l0.06 -1.53 -1.03 0.16c-3.56,0.26 -8.48,2.77 -11.42,4.81l-1.17 1.27c-2.1,4.6 -3.82,11.91 -2.02,17.07 1.89,5.43 6.72,7.21 13.66,7.28l0.22 -1.79c0.26,-1.61 -0.39,-3.47 -0.99,-4.92 -2.81,-0.59 -4.8,-0.52 -6.46,-2.33 2.01,0 4.39,0.59 6.59,0.73 9.89,0.65 20.59,-3.54 27.73,-9.73l5.77 -5.39c0.81,-0.94 0.88,-1.43 1.94,-2.03 -0.94,3.84 -4.29,6.29 -5.71,8.08 2.23,2.83 11.61,4.7 16.2,4.87 3.34,0.12 6.65,-0.23 9.75,-0.83 2.95,-0.57 5.92,-1.76 8.58,-2.18 -1.14,1.76 -4.22,2.48 -6.29,3.07 0.37,0.92 0.54,1.46 1.91,1.68 5.12,2.04 11.99,0.84 16.08,-1.76 2.5,-1.6 1.2,-1.74 4.41,-1.52 0.8,1.65 -0.18,0.43 1.3,1.48l2.97 1.81c1.37,0.86 0.84,0.95 1.95,0.34 -0.52,-7.7 -4.96,-13.17 -9.57,-16.04 -6.7,-4.18 -13.55,-3.98 -22.3,-3.71 1.26,2.25 3.81,2.19 6.06,3.47 0.05,0.03 0.15,0.09 0.22,0.14 -9.08,0.06 -10.65,-7.73 -12.84,-8.19 -1.7,-0.79 -3.34,-1.96 -5.22,-2.94 -4.74,-2.45 -12.01,-5.66 -17.42,-5.78 -8.39,-0.17 -13.61,3.64 -18.76,8.6 -0.75,0.72 -1.12,1.36 -2,2.18z"/>
    <path class="fil3" d="M607.11 178.26c-0.99,6.24 -3.48,11.6 -2.78,18.67 0.64,6.45 4.75,10.46 8.56,12.9 6.63,4.27 13.92,2.56 9.61,-3.86 -1.41,-2.08 -3.25,-3.69 -4.31,-6.22 -2.51,-5.99 4.34,-13.76 6.23,-24.91 3.32,-19.56 -11.59,-18.1 -21.51,-10.71 -4.89,3.64 -9.86,9.09 -11.24,10.09 0.42,-2.92 2.39,-8.2 3.32,-11.33 1.13,-3.78 2.24,-7.8 3.17,-11.76 1.05,-4.42 5.86,-25.15 -3.65,-20.6 -4.64,2.23 -9.9,10.93 -12.03,17.64 -2.4,7.56 -3.23,16.41 -5.31,24.34 -1.81,6.86 -9.85,29.59 -8.38,35.19 1.65,6.24 4.92,3.35 7.69,-0.16 2.16,-2.74 4.26,-5.24 6.55,-8.12 1.79,-2.27 6.57,-7.89 8.68,-9.82 1.6,-1.46 3.81,-4.23 5.7,-5.78 2.08,-1.69 5.8,-5.36 9.7,-5.56z"/>
    <path class="fil3" d="M115.72 166.42c8.48,-1.8 6.87,1.58 6.02,4.5 -6.46,22.25 -23.23,22.74 -24.16,13.88 -0.39,-3.77 1.37,-6.99 3.03,-9.18 2.65,-3.47 8.65,-7.83 15.11,-9.2zm2.67 28.6c2.33,2.73 4.84,9.29 11.93,10.66 7.12,1.38 14.11,0.2 15.22,-6.53 -4.53,-5.06 -12.91,-7.24 -11.8,-16.9 0.46,-3.95 1.55,-7.96 2.66,-11.67 0.81,-2.71 3.12,-8.77 3.04,-11.29 -0.15,-5.19 -2.51,-7.67 -7.15,-4.93 -4.27,2.54 -4.31,0.72 -10.83,-1.33 -7.2,-2.27 -16.96,1.92 -22.17,5.01 -6.5,3.87 -10.73,8.13 -14.78,13.91 -3.46,4.94 -7.56,14.95 -4.44,22.46 1.42,3.41 3.87,5.49 7.28,7.07 3.18,1.46 7.58,3.01 11.6,2.84 9.87,-0.42 16.19,-8.99 19.44,-9.3z"/>
    <path class="fil3" d="M257.87 166.23c1.51,3.45 -3.46,18.39 -13.23,22.67 -9.08,3.98 -13.25,-1.94 -10.09,-9.78 3.32,-8.26 16.11,-14.56 23.32,-12.89zm-3.48 28.69c2.39,4.47 6.19,9.43 11.63,10.6 6.19,1.32 13.95,1 15.63,-6.37l-7.8 -6.51c-3.92,-3.53 -4.78,-5.28 -4.23,-9.99 0.46,-4.02 1.64,-8.07 2.64,-11.73 0.74,-2.73 3.09,-8.97 3.14,-11.32 0.09,-4.88 -2.15,-8.1 -6.59,-5.54 -4.68,2.69 -4.93,1.35 -10.79,-0.77 -7.62,-2.76 -17.2,1.54 -22.58,4.72 -6.48,3.82 -10.81,7.95 -14.93,13.76 -3.39,4.78 -7.53,14.95 -4.69,22.45 2.44,6.44 12.89,10.2 18.67,10.16 4.29,-0.03 7.74,-1.75 10.86,-3.62 2.74,-1.64 7.42,-5.6 9.04,-5.84z"/>
    <path class="fil1" d="M51.42 161.19c0.03,-1.31 4.47,-24.61 4.47,-28.38 20.38,0 21.2,12.35 5.93,22.51 -0.91,0.61 -1.39,0.94 -2.29,1.54 -0.96,0.63 -1.67,0.95 -2.63,1.53 -1.79,1.08 -3.66,1.84 -5.48,2.8zm-10.09 -32.03c-2.57,0.4 -19.57,8.66 -20.02,-0.49 -0.15,-3.25 1.66,-4.43 3.15,-5.91 5.94,-5.9 14.16,-9.81 25.35,-11.02 18.5,-1.99 46.48,3.08 46.05,26.17 -0.35,18.83 -23.99,29.77 -39.59,33.19 -9.56,2.1 -8.67,-2.27 -3.19,-6.01 3.63,-2.48 8.13,-4.05 11.6,-6.58 4.25,-3.1 16.02,-13.15 10.42,-22.58 -3.73,-6.26 -12.75,-7.02 -19.97,-7.43 -3.12,-0.17 -2.44,-0.66 -3.3,5.34 -1.5,10.47 -3.26,20.9 -5.25,31.17 -3.63,18.71 -8.8,40.58 -17.14,55.53 -1.47,2.63 -5.73,9.04 -10.23,7.31 -3.44,-1.33 -3.28,-10.58 -3.16,-15 0.61,-22.46 6.47,-38.25 14.58,-58.09 1.62,-3.95 10.27,-23.72 10.7,-25.6zm-16.06 7.79c4.08,0 4.55,-0.01 8.61,-0.95l-14.23 35.84c-5.77,16.17 -7.78,28.13 -7.78,46.12 0,4.48 1.38,14.04 7.02,14.04 3.76,0 6.39,-0.24 9.34,-3.11 10.51,-10.22 17.16,-39.76 20.32,-53.35 8.29,0 10.83,-0.68 18.54,-3.46 5.72,-2.07 10.26,-4.21 15.13,-7.19 15.63,-9.58 23.24,-27.07 13.48,-41.91 -12.56,-19.08 -51.4,-20.09 -69.61,-6.89 -3.48,2.51 -7.86,5.6 -8.77,10.37 -1,5.28 1.88,10.49 7.95,10.49z"/>
    <path class="fil3" d="M695.7 178.67c0.7,2.17 -8.24,23.13 7.99,31.58 6.13,3.19 15.27,2.05 8.56,-5.06 -1.69,-1.78 -3.67,-3.41 -4.18,-6.7 -1.15,-7.47 6.02,-16.75 6.12,-27.08 0.07,-7.41 -2.24,-12.14 -9.59,-12.4 -10.69,-0.37 -18,6.58 -25.18,13.37 -0.58,0.55 -0.97,0.79 -1.58,1.3l-1.75 1.31c-0.47,-3.82 1.49,-10.61 -4.61,-16.1 -1.66,-1.49 -5.47,-3.72 -6.47,-0.27 -0.47,1.6 0.23,4.33 -0.94,9.57 -2.39,10.78 -8.35,21.35 -9.85,32.28 -1.08,7.82 2.59,14.31 8.01,7.34 2.7,-3.48 11.33,-14.21 14.49,-17.08 2.23,-2.03 1.87,-2.11 5.38,-5.14 1.73,-1.5 10.26,-8.24 13.6,-6.92z"/>
    <path class="fil3" d="M755.98 179.05c-1.56,7.35 -10.47,20.89 -18.45,18.73 -6.56,-1.77 -3.12,-13.48 0.26,-17.73 10.86,-13.62 20.66,-12.6 18.19,-1zm-4.55 -20.24c-8.41,0.92 -13.92,3.39 -19.48,7.43 -4.37,3.18 -9.73,8.3 -11.95,14.82 -4.44,13.01 1.86,29.36 19.67,31.16 26.86,2.7 37.41,-34.25 30.4,-45.73 -3.23,-5.3 -9.73,-8.66 -18.64,-7.68z"/>
    <path class="fil4" d="M329.32 199.35c-3.84,-4.43 -5.27,-6.25 -8.58,-11.51 -6.77,-10.75 -8.2,-17.15 -11.32,-28.88 -0.39,-1.44 -1.23,-2.04 -2.03,-3.06 -1.96,-2.47 -5.16,-8.21 -6.08,-8.94 -0.05,10.04 4.37,25.91 8.28,33.86 5.41,10.97 10.03,17.56 16.88,24.89 1.88,2 3.22,3.42 5.3,5.23 2.07,1.8 2.94,2.85 5.65,4.86 12.88,9.56 27.07,16.22 44.17,18.35 26.94,3.35 48.4,-4.12 65.95,-16.18 3.98,-2.74 8.35,-6.55 11.42,-9.63 9.45,-9.44 20.37,-25.25 23.5,-38.44 -1.65,1.11 -2.31,2.47 -5.58,4.39 -4.91,2.88 -4.03,0.47 -5.67,4.2 -2.04,4.65 -4.71,9.18 -7.28,12.81 -18.19,25.69 -48.1,40.95 -82.67,36.18 -23.8,-3.29 -41.48,-16.07 -51.94,-28.13z"/>
    <path class="fil5" d="M381.46 65.66l0.13 2.01c0.01,1.6 0.25,2.89 0.26,4.86 0.01,3.1 -0.58,9.39 -1.88,12.22l-0.33 0.54 -0.69 1.9c2.71,0.08 2.86,0.04 4.91,0.86 -1.45,0.96 -4.84,-0.43 -7.74,1.3 -1.25,3.43 0.36,6.6 3.61,7.29 4.02,0.86 6.53,0.38 10.14,-0.53 0.89,-2.32 -0.11,-3.22 -0.88,-4.69 3.4,0.86 2.88,4.37 0.26,7.54 4.8,-0.03 9.31,-2.73 13.84,-3.6l-0.83 -1.78c1.18,0.28 2.73,1.3 3.87,1.85 2.04,0.98 2.88,0.89 3.61,1.21l0.96 0.64 -3.1 0.53c0.59,3.76 3.57,9.6 3.05,18.1 -0.13,2.22 -0.74,4.49 -0.6,6.5l0.04 0.71c1.46,-1.68 2.3,-2.15 3.62,-3.72 3.47,-4.17 5.76,-9.5 6.47,-14.94 2.57,-19.67 -6.29,-18.04 -8.43,-19.49 1.37,-2.76 2.43,-4.15 1.65,-7.97 -0.3,-1.43 -0.62,-2.44 -1.3,-3.78 -1.31,-2.56 -1.19,-2.38 -2.33,-2.68l-1.32 0.24 -0.44 0.48c1.47,3.97 -1.19,11.54 -2.26,15.45l2.22 -0.04c-1.64,1.54 -1.69,-0.21 -7.47,4.91l-0.13 -1.35c-9.39,1.45 -7.02,-5.93 -7.16,-8.13 -1.5,-4.15 0.44,-11 1.72,-14.82 -0.48,-0.78 -0.26,-0.96 -0.47,-2.16l-0.19 -0.94c-1.92,0.05 -4.34,-0.37 -6.71,-0.34 -2.08,0.04 -4.03,0.44 -5.98,0.84l-0.12 0.98z"/>
    <path class="fil5" d="M449.96 129.34l1.43 0.89c0.32,-0.33 0.51,1.14 0.43,-1.04l4.81 6.31c1.61,3.39 -1.81,12.91 8.72,14.32 4.52,0.61 7.55,-1.11 10.06,-1.07 0.77,-0.4 1.42,-1.42 2.09,-2.23 0.71,-0.85 1.52,-1.9 1.61,-3.03 -0.16,-2.27 0.14,-4.53 -0.27,-6.53 -0.39,-1.9 -0.82,-3.41 -1.49,-5.27 -1.6,-4.46 -0.69,-5.64 -0.59,-11.64 0.29,-3.18 -0.5,-6.78 -3.57,-7.52 -1.87,-0.46 -7.84,0.51 -9.08,1.55 -0.71,1.33 -0.2,0.44 -1.24,1.23 -4.06,3.08 -3.05,9.17 2.22,8.77 1.73,-0.02 3.02,-1.88 4.84,-2.44 -0.78,2.98 -4.63,3.06 -5.5,4.42 -2.5,4.48 -1.8,4.35 -0.12,8.3l2.24 -0.43c1.54,0.07 1.81,-0.39 3.18,-0.68 -0.63,1.66 -2.88,1.99 -4.66,2.44 -0.75,1.25 -1.4,2.46 -1.41,4.14 -0.02,2.42 0.29,2.61 2.02,3.08 1.46,0.31 2.15,0.11 3.63,0.03 -0.93,1.25 -2.57,1.4 -4.23,1.42 -6.85,0.11 -7.85,-3.05 -5.66,-8.68 -2.48,-3.6 -2.32,-3.17 -1.46,-8.61 -0.56,-0.7 -3.88,-2.82 -2.65,-7.19 0.83,-2.93 3.43,-3.85 5.11,-5.57 -0.56,-5.03 -6.94,-11.3 -11.32,-11.43 -3.4,-0.11 -8.06,2.18 -3.4,7.84 6,7.27 3.95,8.51 4.26,18.62z"/>
    <path class="fil3" d="M644.96 161.42c-4.13,1.34 -12.49,17.41 -15.01,23.05 -2.22,4.98 -4.13,8.67 -2.67,15.08 1.2,5.25 4.29,9.35 7.67,11.51 6.91,4.39 7.22,-1.73 8.38,-7.48 2.44,-12.24 11.4,-28.03 6.35,-37.87 -0.88,-1.71 -2.41,-5.04 -4.72,-4.29z"/>
    <path class="fil3" d="M260.42 115.1c0.89,-2.36 3.05,-2.06 5.57,-2.48 -3.71,-9.13 7.02,-11.41 11.53,-14.59 2.94,-2.08 4.73,-3.85 8.82,-5.23 5.44,-1.84 8.55,0.08 12.44,-0.94 4.69,-1.22 4.46,-3.17 10.98,-2.96 5.31,0.16 6.61,1.78 12.5,0.27 14.84,-3.82 18.88,4.18 21.3,4.82 2.56,-0.13 2.63,-0.54 5.21,0.22 -1.79,2.49 -2.93,-0.96 -8.36,6.75 -3.18,4.52 -4.3,3.04 -9.82,5.17 -5.7,2.19 -9.11,10.65 -20.53,9.83 -4.9,-0.35 -8.42,-1.83 -13.69,-0.67 -7.79,1.71 -6.93,8.84 -22.4,1 -4.96,-2.52 -7.94,-1.64 -13.55,-1.19zm-0.35 1.13c2.28,1.09 2.31,2.23 5.98,2.03 3.02,-0.17 4.71,-0.62 7.2,0.66 4.98,2.57 11.91,5.52 18.3,2.39 2.05,-1 3.15,-1.97 5.73,-2.32 9.19,-1.26 16.88,3.72 30.8,-7.4 1.85,-1.47 2.14,-1.99 5.03,-2.95 6.29,-2.11 6.48,0.01 10.28,-5.35 1.29,-1.82 1.87,-3.1 3.46,-4.5 0.86,-0.76 1.25,-0.87 2.21,-1.63 1.05,-0.83 1.2,-1.56 2.21,-2.06 -0.84,-5.19 -4.2,-6.85 -9.38,-7.83 -4.47,-0.85 -10.24,-3.45 -14.28,-3.42 -5.81,0.03 -8.3,3.22 -14.53,1.95 -9.11,-1.85 -8.21,-1.07 -14.51,1.38 -7.06,2.74 -10.99,-3.14 -19.92,5.92 -1.2,1.22 -3.01,3.31 -4.56,4.37 -5.06,3.46 -6.52,0.71 -11.37,6.16 -1.89,2.12 -5.79,9.21 -2.65,12.6z"/>
    <path class="fil6" d="M349.53 152.62c-0.69,-0.62 -1.82,0.57 -2.37,1.02l-0.72 0.56c-7.57,5.5 -17.04,4.87 -22.39,-0.61l-1.57 -1.96c-1.66,-2.35 -2.89,-5.8 -1.96,-8.7 0.8,-2.49 2.27,-3.04 2.63,-4.29 -7.22,1.02 -10.95,2.43 -17.51,-3.95 -1.69,-1.63 -1.99,-2.99 -4.18,-3.76 -4.99,8.66 8.3,25.83 15.92,31.25 9.53,6.77 25.8,3.9 28.01,-1.07 1.39,-3.12 2.63,-5.52 4.14,-8.49z"/>
    <path class="fil2" d="M452.51 98.81c-5.05,-1.7 -10.88,0.31 -12.92,4.69 -3.38,7.23 5.82,10.72 5.73,17.53 -3.05,-0.78 -8.34,-5.91 -16.33,-6.73 0.22,-2.57 1.66,-5.7 2.02,-8.92 0.26,-2.39 -0.21,-2.41 1.66,-3.69 1.11,-0.77 1.73,-1.34 2.6,-2.52 4.88,-6.57 3.04,-12.49 2.84,-17.74 4.05,1.49 17.27,15.47 18.7,19.48 -1.59,-0.56 -2.44,-1.48 -4.3,-2.1zm15.68 11.67c0.69,-0.45 0.5,-0.19 0.73,-1.05 -2.13,-5.84 -6.8,-12.67 -10.47,-17.52 -3.66,-4.84 -3.34,-4.04 -6.65,-7.39 -0.8,-0.81 -1.53,-1.72 -2.31,-2.47 -2.88,-2.75 -13.1,-10.66 -16.73,-11.71 -1.01,11.46 3.75,5.05 3.61,17.18 -0.04,3.03 -0.61,5.92 -1.81,8.4 -1.35,2.75 -2.71,3.76 -5.45,5.03 -0.54,10.17 -2.68,10.97 -4.08,15.81 6.01,0.26 7.93,0.23 12.76,2.82 1.72,0.91 9.14,5.64 9.83,5.67 0.59,-6.46 -0.17,-8.42 -3.19,-12.3 -2.34,-3.01 -5.08,-7.32 -1.09,-10.49 7.78,-6.16 17.21,3.56 18.83,9.41l6.02 -1.39z"/>
    <path class="fil7" d="M428.7 93.63c0.74,-1.39 1.98,-0.9 1.71,-3.22 -0.21,-1.87 -1.38,-1.69 -1.71,-3.26 -0.74,-3.43 3.71,-5.76 4.06,-1.87l-2.1 -0.44c-1.55,3.41 0.47,2.42 1.08,5.07 0.52,2.28 -0.83,4.43 -3.04,3.72zm-18.93 -23.09c1.14,0.3 1.02,0.12 2.33,2.68 0.68,1.34 1,2.35 1.3,3.78 0.78,3.82 -0.28,5.21 -1.65,7.97 2.14,1.45 11,-0.18 8.43,19.49 -0.71,5.44 -3,10.77 -6.47,14.94 -1.32,1.57 -2.16,2.04 -3.62,3.72l-0.04 -0.71c-0.61,0.75 -1.53,4.3 -2.37,5.63 -1.14,1.83 -2.49,2.97 -3.56,4.45l1.08 0.87c0.6,0.36 0.93,0.47 1.52,0.65 1.08,-0.83 2.39,-2.44 3.47,-3.46 1.28,-1.21 2.38,-2.11 3.66,-3.36 1.46,-1.41 2.16,-1.89 3.42,-3.6 1.12,-1.51 1.96,-2.46 3.07,-3.94 4.7,-6.3 5.95,-12.09 6.57,-21.52 2.52,0.5 2.94,0.16 4.28,-1.44 3.24,-3.89 3.48,-11.22 1.85,-15.4 -1.73,-4.45 -7.64,-4.64 -7.22,6.87l0.21 5.35c-0.01,0.09 -0.04,0.18 -0.06,0.26l-0.16 0.47c-3.03,2.58 -2.26,-13.29 -7.13,-18.69 -2.77,-3.07 -3.04,-3.63 -4.87,-8.22 -0.58,-1.45 -1.21,-1.39 -3.95,-2.73 -1.35,-0.67 -3.07,-1.69 -4.59,-1.86 1.23,1.13 5.23,5.18 4.5,7.8z"/>
    <path class="fil3" d="M278.47 107.7c-1.17,0.92 -2.93,1.95 -4.67,1.75 -2.04,-0.24 -3.59,-1.61 -2.72,-3.81 1.13,-2.86 7.79,-3.89 7.39,2.06zm26.57 -7.81c2.66,7.27 -5.06,5.57 -6.27,4.67 -2.2,-1.62 -1.35,-6.28 6.27,-4.67zm-25.41 0.06c1.36,0.16 2.21,0.56 3.64,0.68 2.88,0.24 8.25,-0.25 9.85,3.48 -1.66,1.57 -5.64,2.5 -8.35,1.67 -2.51,-0.77 -4.62,-3 -5.14,-5.83zm39.3 -7.18c6.83,-1.58 8.38,3.41 3.93,5.3 -5.32,2.26 -9.48,-4.01 -3.93,-5.3zm-12.92 -1.82c3.02,-0.82 6.89,0.59 8.6,2.24 2.23,2.15 1.85,5.92 -1.55,6.87 -2.98,0.83 -7.39,-0.63 -8.91,-2.15 -2.47,-2.46 -1.73,-5.98 1.86,-6.96zm-38.23 21.22c1.77,0.32 3.41,-0.6 5.74,-0.22 2.01,0.34 3.64,1.2 5.64,0.92 0.41,-2.63 2.48,-4.19 5.17,-4.89 1.46,-0.38 2.92,-0.41 4.37,-0.12 2.04,0.4 2.3,1.17 3.43,1.94l6.27 -1.24c2.53,-1.91 6.48,-1.99 8.44,0.29 1.45,0.15 1.54,0.28 2.93,-0.16 1.22,-1.4 0.97,-2.04 3.03,-2.83 2.33,-0.89 3.37,-0.23 5.53,-0.2l0.99 0 0.35 -0.67c-1.67,-1.33 -2.91,-2.49 -3.53,-5.16 2.68,0.09 4.88,1.16 8.05,0.64 1.39,-0.01 2.87,0.51 3.69,-0.83 -0.5,-2.21 -1.49,-4.66 3.25,-6.7 5.34,-2.3 8.01,0.78 8.95,0.96 1.45,0.57 0.74,0.59 0.7,-0.22 -0.76,-1.98 -7.53,-4.38 -10.61,-4.44 -5.02,-0.11 -8.64,2.25 -13.41,1.86 -5.13,-0.41 -8.13,-2.09 -13.26,0.07 -6.94,2.92 -5.15,1.85 -12.95,1.88 2.42,0.86 4.01,0.03 5.97,2.61 4,5.28 -6.15,6.05 -9.36,2.33 -2.52,-2.93 1.23,-3.99 2.85,-4.71 -5.68,0.25 -10.42,5.2 -14.64,7.38 -2.73,1.41 -4.81,2.26 -6.65,4.19 -1.34,1.4 -4.33,6.18 -0.94,7.32z"/>
    <path class="fil4" d="M438 69.33c0.95,1.22 5.96,4.41 7.69,5.67 6.6,4.8 8.72,7.46 13.76,13.35 5.02,5.86 7.05,9.6 10.68,16.44 3.07,5.78 0.95,4.67 4.52,5.69 5.83,1.68 2.22,8.06 8.06,15.85l3.15 3.91c0.21,-9.85 -8.26,-29.89 -13.94,-38.41 -1.81,-2.71 -3.56,-5.19 -5.48,-7.6 -1.87,-2.35 -4.18,-5.05 -6.17,-6.9 -1.17,-1.09 -2.19,-2.27 -3.2,-3.18 -2.45,-2.2 -8.49,-7.57 -11.14,-8.67 -3.53,1.68 0.1,0.95 -7.93,3.85z"/>
    <path class="fil8" d="M306.47 255.73c0.79,-3.32 10.84,-7.78 12.01,-3.44 0.79,2.93 -2.87,4.05 -4.65,4.53 -3.38,0.91 -5.17,0.22 -7.36,-1.09zm-4.69 -4.87c-1.87,-0.72 -1.22,-1.48 -3.25,-1.6 -1.21,1.39 -0.66,2.62 -0.91,4.78 -1.59,1.48 -4.19,2.39 -6.03,4.12 -1.41,1.32 -3.48,5.5 -1.29,7.38 3.41,1.24 10.22,-5.04 11.82,-6.34 2.11,0.73 9.82,9.63 20.61,1.08 2.22,-1.76 5.37,-5.13 3.13,-9.63 -1.83,-3.66 -5.01,-4.6 -10.15,-4.64 -0.07,-2.07 0.36,-4.42 -2.52,-3.29 -1.83,0.73 -5.82,3.87 -7.59,5.22 -1.05,0.8 -2.75,2.37 -3.82,2.92z"/>
    <path class="fil2" d="M342.02 115.31c6.84,-3.11 10.16,-9.11 11.66,-10.45 1.03,2.34 1.54,6.76 2.65,9.75 0.54,1.47 1.14,2.91 1.87,4.2 0.73,1.3 1.57,2.43 2.13,3.76 -1.98,1.57 -13.29,9.56 -15.5,10.22l-5.4 -9.23c0.57,-1.26 1.52,-1.73 2.13,-3.28 0.48,-1.24 0.3,-3.44 0.46,-4.97zm4.4 -31.94c0.76,-1.44 9.86,-7.96 12.91,-7.78 -0.03,1.33 -2.58,4.38 -3.37,5.51 -2.24,3.2 -2.28,5.08 -3.15,6.17 -1.13,-0.67 -1.52,-1.38 -2.94,-2.23 -1,-0.6 -2.4,-1.03 -3.45,-1.67zm-9.85 -0.41c0.2,0.58 -0.07,0.29 0.32,0.78 8.71,1.66 17.91,3.31 16.79,13.9 -0.84,7.94 -8.94,13.68 -14.53,16.6 1.07,5.81 0.56,6.23 -3.47,8.38 1.49,3.11 4.67,5 7.81,13.76 2.36,-0.8 7.99,-4.78 10.15,-6.25 2.18,-1.48 8.08,-5.68 10.1,-6.47 -0.45,-1.67 -2.19,-3.62 -3.12,-5.37 -3.47,-6.54 -4.54,-12.24 -5.24,-19.93 -0.49,-5.43 -1.02,-10.26 1.66,-14.58 1.11,-1.79 6.26,-8.53 6.38,-10.06 -3.12,-0.38 -5.75,-0.65 -8.57,-1.65 -3.17,-1.11 -2.34,-1.31 -6.79,1.78l-10.09 7.78c-0.64,0.59 -0.66,0.82 -1.4,1.33z"/>
    <path class="fil8" d="M472.41 247.01c4.02,1.86 2.86,14.65 -2.16,13.39 -4.45,-1.13 -2.66,-11.14 2.16,-13.39zm6.09 10.84c2.83,0.13 4.3,2.06 7.57,0.25 5.34,-2.97 3.17,-5.96 3.01,-5.71 -0.04,0.07 -0.17,-0.1 -0.23,-0.13l-0.53 -0.18c-2.57,-0.55 -5.58,0.99 -7.77,-3.04 -1.35,-2.47 -2.3,-6.86 -3.58,-8.85 -0.78,-1.2 -2.6,-2.39 -3.66,-0.61 -1.3,2.2 -0.48,1.79 -3.45,2.63 -3.31,0.94 -4.87,3.2 -6.4,6.03 -2.96,5.48 -3.72,14.71 1.29,18.84 2.47,2.04 7.41,0.72 9.59,-0.94 2.32,-1.78 3.23,-4.79 4.16,-8.29z"/>
    <path class="fil2" d="M365.06 56.86l1.79 8.44c0.81,0.07 1.82,-1.03 2.64,-1.6 7.67,-5.35 19.37,-7.17 28.62,-5.58 14.94,2.58 24.72,12.6 26.88,13.24 0.57,-0.71 0.86,-9.47 -1.69,-12.23 -1.12,-1.22 -2.37,-2.31 -3.88,-3.47 -2.53,-1.94 -2.53,-1.21 -5.57,-0.55 -7.96,1.72 -14.48,0.17 -20.63,-4.5 -0.93,-0.71 -1.2,-1.2 -2.14,-1.8 -1.29,0.58 -1.04,1.09 -2.27,2 -2.83,2.11 -4.8,3.64 -8.59,4.79 -3.77,1.14 -11.47,2.36 -14.97,0.6l-0.19 0.66z"/>
    <path class="fil5" d="M367.07 69.97c-0.87,2.05 -0.76,3.99 -2.1,6.43 -4.75,8.63 -8.18,6.61 -7.32,20.35 0.49,7.85 1.97,15.32 5.87,21.84 0.89,1.49 2.92,4.44 3.96,5.27 -0.06,-3.89 -0.37,-8.19 -0.64,-12.12 -0.27,-3.98 -1.21,-7.76 -1.42,-11.39l-2.7 0.33c0.62,-1.09 1.76,-1.7 2.77,-3.03 0.99,-1.3 1.36,-2.44 2.31,-3.68 0.5,0.83 0.31,1.06 0.25,2.23l3.92 0.5c-1.3,-4.99 -0.68,-3.51 1.13,-7.18 -2.75,-1.05 -0.92,0.63 -3.36,-2.03 -1.13,-1.22 -1.65,-1.5 -2.91,-2.52 0.54,-0.45 0.84,-0.37 1.99,-0.23l-0.16 -1.02c-0.41,-1.39 -0.35,-5.35 -0.32,-7.05 0.07,-3.15 1.12,-5.75 1.13,-5.77 0.02,-0.16 0.07,-0.19 0.13,-0.28l0.59 -1.89c-1.25,0.16 -1.88,0.61 -3.12,1.24z"/>
    <path class="fil8" d="M361.67 271.79c17,-9.15 -5.26,-9.71 -11.35,-11.46 -1.69,-0.49 -3.56,-1.57 -5.34,-1.07 -1.41,3.05 1.46,4.69 3.59,5.67l7.5 2.82 -10.95 3.77c-2.96,1.22 -8.01,3.7 -7.23,7.37 1.49,1.39 4.34,1.48 6.68,1.88 5.18,0.9 8.71,4.04 13.02,4.18 2.43,0.07 5.49,-0.86 5.41,-3.2 -2.67,-1.09 -3.67,-0.21 -6.24,-2.04 -0.95,-0.68 -4.07,-2.44 -4.72,-3.5 2.41,-0.63 7.42,-3.22 9.63,-4.42z"/>
    <path class="fil2" d="M322.62 169.91c2.5,0.07 4.73,1.02 7.85,1.05 3.88,0.04 5.43,-0.66 8.75,-0.89 -0.48,3.58 -1.43,7.01 -2.07,10.56 -0.59,3.27 -0.76,8.15 -1.67,11.07 -3.35,-2.99 -11.32,-15.57 -12.86,-21.79zm15.46 33.7c-0.01,-9.58 -0.8,-8.6 0.9,-19.53l3.64 -17.73c-5.49,1.33 -7.7,3.25 -16.02,1.9 -2.56,-0.41 -4.83,-1.07 -7.12,-2.12 -2.48,-1.15 -4.13,-2.88 -6.02,-3.71 0.89,6.88 6.57,18.32 9.66,23.36 2.73,4.45 10.94,15.67 14.96,17.83z"/>
    <path class="fil8" d="M384.78 271.86c-2.49,3.57 -18.96,8.45 -15.21,15.4 3.34,0.78 5.22,-0.76 14.58,1.06 9.39,1.82 11.88,-3.47 9.73,-3.95 -2.04,-0.46 -2.54,0.68 -5.99,-0.71 -0.98,-0.39 -4.65,-1.71 -5.3,-2.15 1.55,-1.35 3.39,-2.46 5.08,-3.81 1.82,-1.46 3.22,-2.47 4.82,-4.1 0.95,-0.97 3.99,-3.2 3.41,-5.5 -0.92,-3.62 -11.4,-2.05 -15.66,-1.96 -1.77,0.04 -7.61,-1.17 -8.18,0.41 -0.43,1.16 0.67,2.59 1.21,3.03 0.77,0.63 2,1.05 3.13,1.33 2.72,0.7 5.49,0.71 8.38,0.95z"/>
    <path class="fil9" d="M260.07 116.23c2.48,7.25 14.03,9.14 23.52,8.82 10.03,-0.33 19,-2.13 28.34,-4.14 14.02,-3.01 41.01,-11.04 39.34,-25.81 -1.01,0.5 -1.16,1.23 -2.21,2.06 -0.96,0.76 -1.35,0.87 -2.21,1.63 -1.59,1.4 -2.17,2.68 -3.46,4.5 -3.8,5.36 -3.99,3.24 -10.28,5.35 -2.89,0.96 -3.18,1.48 -5.03,2.95 -13.92,11.12 -21.61,6.14 -30.8,7.4 -2.58,0.35 -3.68,1.32 -5.73,2.32 -6.39,3.13 -13.32,0.18 -18.3,-2.39 -2.49,-1.28 -4.18,-0.83 -7.2,-0.66 -3.67,0.2 -3.7,-0.94 -5.98,-2.03z"/>
    <path class="fil8" d="M428.99 114.3c7.99,0.82 13.28,5.95 16.33,6.73 0.09,-6.81 -9.11,-10.3 -5.73,-17.53 2.04,-4.38 7.87,-6.39 12.92,-4.69 1.86,0.62 2.71,1.54 4.3,2.1 -1.43,-4.01 -14.65,-17.99 -18.7,-19.48 0.2,5.25 2.04,11.17 -2.84,17.74 -0.87,1.18 -1.49,1.75 -2.6,2.52 -1.87,1.28 -1.4,1.3 -1.66,3.69 -0.36,3.22 -1.8,6.35 -2.02,8.92z"/>
    <path class="fil8" d="M408.48 276.1c0.33,-1.91 1.53,-3.51 2.62,-4.31 0.88,-0.64 3.63,-1.89 4.84,-0.83 2.13,1.86 -5.04,4.95 -7.46,5.14zm0.23 4.11c4.33,-1.12 6.44,-0.76 10.35,-3.02 8.55,-4.93 2.84,-12.78 -5,-12.55 -6.61,0.19 -13.3,7.02 -13.65,12.68 -1.05,17.11 22.2,9.13 21.91,3.74 -3.36,-1.79 -11.76,4.86 -13.61,-0.85z"/>
    <path class="fil6" d="M478.48 157.53c1.42,0.65 -0.49,14.33 -16.9,10.69 -4.37,-0.96 -7.27,-2.62 -10.59,-5.08l-1.42 -1.12c-0.49,-0.39 -0.66,-0.44 -1.12,-0.8l-2.86 -2.86c-0.43,-0.55 -0.39,-0.67 -0.74,-1.14l-1.16 -1.13c0.63,2.75 2.53,6.66 3.61,9.49 1.97,5.13 1.48,4.22 6.14,6.61 11.95,6.13 27.61,2.57 32.31,-13.92 1.06,-3.72 1.39,-7.32 1.35,-11.43 -0.07,-6.71 -1.14,-7.26 -1.77,-11.05 -0.19,5.06 0.96,7.55 -0.86,12.91 -0.7,2.07 -1.17,3.26 -2.44,4.89 -1.8,2.33 -2.62,2.53 -3.55,3.94z"/>
    <path class="fil8" d="M342.02 115.31c-0.16,1.53 0.02,3.73 -0.46,4.97 -0.61,1.55 -1.56,2.02 -2.13,3.28l5.4 9.23c2.21,-0.66 13.52,-8.65 15.5,-10.22 -0.56,-1.33 -1.4,-2.46 -2.13,-3.76 -0.73,-1.29 -1.33,-2.73 -1.87,-4.2 -1.11,-2.99 -1.62,-7.41 -2.65,-9.75 -1.5,1.34 -4.82,7.34 -11.66,10.45z"/>
    <path class="fil6" d="M365.06 56.86l0.19 -0.66c3.5,1.76 11.2,0.54 14.97,-0.6 3.79,-1.15 5.76,-2.68 8.59,-4.79 1.23,-0.91 0.98,-1.42 2.27,-2 0.94,0.6 1.21,1.09 2.14,1.8 6.15,4.67 12.67,6.22 20.63,4.5 3.04,-0.66 3.04,-1.39 5.57,0.55 1.51,1.16 2.76,2.25 3.88,3.47 2.55,2.76 2.26,11.52 1.69,12.23 0.6,1.3 1.53,1.61 2.46,2.44 1.07,0.96 1.46,1.83 2.89,2.21 0.46,-4.35 -0.3,-12.13 -1.27,-16.31 -0.94,-4.06 -1.32,-2.75 -4.43,-4.46 -2.88,-1.58 -3.02,-2.56 -4.86,-4.08 -2.08,-1.73 -11.15,2.45 -23.08,-2.11 -2.41,-0.92 -4.11,-2.49 -5.94,-3.13 -1.61,0.67 -3.73,2.61 -5.41,3.66 -6.78,4.21 -12.76,5.47 -20.83,6.05 0.24,1.09 0.11,0.69 0.54,1.23z"/>
    <path class="fil1" d="M739.99 193.72c-0.86,0 -0.88,-0.15 -1.6,-0.32 -2.22,-9.52 9.86,-19.04 13.72,-19.13 0.19,2.37 0.43,3.45 -0.86,6.48 -1.97,4.59 -4.71,8.48 -8.48,11.61 -0.48,0.4 -2.12,1.36 -2.78,1.36zm15.99 -14.67c2.47,-11.6 -7.33,-12.62 -18.19,1 -3.38,4.25 -6.82,15.96 -0.26,17.73 7.98,2.16 16.89,-11.38 18.45,-18.73z"/>
    <path class="fil1" d="M292.32 94.84l1.34 0.3c1.74,0.59 2.67,1.47 2.17,3.63 -2.72,0.73 -7.54,0.08 -8.09,-2.64 0.88,-1.51 2.92,-2.03 4.58,-1.29zm48.46 -1.16c1.34,0.43 1.62,0.8 2.33,1.81l-6.05 7.23c-2.44,1.73 -6.53,1.53 -9.64,3.74 -2.58,1.84 -4.24,4.13 -7.41,5.98 -8.9,5.21 -14.79,-0.11 -23.32,1.54 -4.49,0.87 -5.67,3.07 -9.11,4.31 -4.86,1.75 -10.36,-2.12 -15.2,-3.93 -3.74,-1.4 -4.21,-0.17 -4.6,-2.19 -3.39,-1.14 -0.4,-5.92 0.94,-7.32 1.84,-1.93 3.92,-2.78 6.65,-4.19 4.22,-2.18 8.96,-7.13 14.64,-7.38 -1.62,0.72 -5.37,1.78 -2.85,4.71 3.21,3.72 13.36,2.95 9.36,-2.33 -1.96,-2.58 -3.55,-1.75 -5.97,-2.61 7.8,-0.03 6.01,1.04 12.95,-1.88 5.13,-2.16 8.13,-0.48 13.26,-0.07 4.77,0.39 8.39,-1.97 13.41,-1.86 3.08,0.06 9.85,2.46 10.61,4.44zm-80.36 21.42c5.61,-0.45 8.59,-1.33 13.55,1.19 15.47,7.84 14.61,0.71 22.4,-1 5.27,-1.16 8.79,0.32 13.69,0.67 11.42,0.82 14.83,-7.64 20.53,-9.83 5.52,-2.13 6.64,-0.65 9.82,-5.17 5.43,-7.71 6.57,-4.26 8.36,-6.75 -2.58,-0.76 -2.65,-0.35 -5.21,-0.22 -2.42,-0.64 -6.46,-8.64 -21.3,-4.82 -5.89,1.51 -7.19,-0.11 -12.5,-0.27 -6.52,-0.21 -6.29,1.74 -10.98,2.96 -3.89,1.02 -7,-0.9 -12.44,0.94 -4.09,1.38 -5.88,3.15 -8.82,5.23 -4.51,3.18 -15.24,5.46 -11.53,14.59 -2.52,0.42 -4.68,0.12 -5.57,2.48z"/>
    <path class="fil6" d="M422.57 52.03c0.37,0.48 0.07,0.16 0.53,0.57 4.59,4.14 11.81,3.96 14.2,4.94 -1.22,1.03 -3.9,0.86 -5.81,0.97l1.08 8.82c9.17,0.81 16.93,-6.16 16.71,-14.95 -1.11,0.61 -0.58,0.52 -1.95,-0.34l-2.97 -1.81c-1.48,-1.05 -0.5,0.17 -1.3,-1.48 -3.21,-0.22 -1.91,-0.08 -4.41,1.52 -4.09,2.6 -10.96,3.8 -16.08,1.76z"/>
    <path class="fil1" d="M237.99 186.07c-0.93,-1.94 -0.49,-4.62 0.53,-6.49 0.55,-1.02 1.04,-1.58 1.77,-2.38 0.23,-0.25 0.21,-0.24 0.45,-0.5 0.05,-0.05 0.11,-0.12 0.15,-0.17 2.6,-2.7 8.76,-6.41 13.05,-6.41 -1.27,2.64 -2.55,8.97 -7.19,12.9 -0.94,0.8 -1.35,1.13 -2.44,1.71 -1.83,1 -4.03,1.87 -6.32,1.34zm19.88 -19.84c-7.21,-1.67 -20,4.63 -23.32,12.89 -3.16,7.84 1.01,13.76 10.09,9.78 9.77,-4.28 14.74,-19.22 13.23,-22.67z"/>
    <path class="fil1" d="M101.81 185.75c-2.11,-9.07 11.46,-15.63 15.95,-15.63 -0.09,3.82 -4.39,11.88 -9.78,14.78 -2.08,1.11 -4.2,1.8 -6.17,0.85zm13.91 -19.33c-6.46,1.37 -12.46,5.73 -15.11,9.2 -1.66,2.19 -3.42,5.41 -3.03,9.18 0.93,8.86 17.7,8.37 24.16,-13.88 0.85,-2.92 2.46,-6.3 -6.02,-4.5z"/>
    <path class="fil8" d="M430.23 284c6.28,0.98 5.71,-5.24 5.96,-10.22 0.64,-12.91 8.31,-11.93 8.74,-14.74 0.38,-2.54 -5.03,-5.02 -11.55,2.81 -0.59,0.71 -0.98,1.54 -1.8,2.1 -2.53,-1.21 -4.24,-3.87 -7.3,-0.79 -0.2,2.08 1.08,3.24 1.92,4.85 3.29,6.29 1.26,12.29 4.03,15.99z"/>
    <path class="fil6" d="M363.55 61.01l-0.22 1.79c-6.94,-0.07 -11.77,-1.85 -13.66,-7.28 -1.8,-5.16 -0.08,-12.47 2.02,-17.07 -2.67,1.42 -5.26,5.12 -6.78,8.64 -4.27,9.89 1,20.33 12.59,23.32 4.05,1.04 6.39,0.73 6.39,0.73l0.54 -0.2c0.3,-1.52 0.15,-3.27 -0.03,-4.83 -0.14,-1.26 -0.39,-4.41 -0.85,-5.1z"/>
    <path class="fil3" d="M659.31 138.46c-3.58,0.9 -9.6,4.74 -11.65,6.95 -6.87,7.4 4.09,14.3 10.57,8.34 2.26,-2.08 6.48,-8.41 6.42,-12.01 -0.05,-2.93 -2.51,-3.99 -5.34,-3.28z"/>
    <path class="fil1" d="M176.44 184.79c0.86,-3.68 4.91,-10.38 8.15,-12.89 2.22,-1.72 2.22,-2.1 4.93,-2.1 0.89,3.82 -0.27,5.47 -2.95,8.55 -0.61,0.7 -0.88,1.28 -1.61,1.89l-3.63 2.74c-1.56,0.93 -2.69,1.63 -4.89,1.81zm-4.17 3.58c8.53,4.33 26.87,-12.94 20.13,-20.81 -6.91,-8.06 -22.08,13.33 -20.13,20.81z"/>
    <path class="fil9" d="M340.08 93.9c1.9,3.77 -0.6,5.73 -3.62,6.94 -3.64,1.46 -6.28,0.54 -8.58,-1.2 -0.82,1.34 -2.3,0.82 -3.69,0.83 0.79,0.59 2.6,0.84 3.46,1.36 1.09,0.66 1.54,1.03 2.05,2.15 -2.79,2.13 -6.62,2.44 -10.03,1.01l-0.35 0.67 -0.99 0c3.94,2.39 1.76,4.88 -1.6,6.06 -3.18,1.12 -7.5,1.45 -6.96,-3.03 -1.39,0.44 -1.48,0.31 -2.93,0.16 0.28,3.18 -1.39,4.83 -4.64,4.4 -3.51,-0.46 -4.61,-1.06 -3.8,-4.69l-6.27 1.24c0.55,2.28 0.86,3.31 -0.84,4.86 -1,0.91 -2.6,1.72 -4.25,2.15 -3.8,0.97 -7.45,-0.21 -7.88,-3.94 -2,0.28 -3.63,-0.58 -5.64,-0.92 -2.33,-0.38 -3.97,0.54 -5.74,0.22 0.39,2.02 0.86,0.79 4.6,2.19 4.84,1.81 10.34,5.68 15.2,3.93 3.44,-1.24 4.62,-3.44 9.11,-4.31 8.53,-1.65 14.42,3.67 23.32,-1.54 3.17,-1.85 4.83,-4.14 7.41,-5.98 3.11,-2.21 7.2,-2.01 9.64,-3.74l6.05 -7.23c-0.71,-1.01 -0.99,-1.38 -2.33,-1.81 0.04,0.81 0.75,0.79 -0.7,0.22z"/>
    <path class="fil8" d="M322.62 169.91c1.54,6.22 9.51,18.8 12.86,21.79 0.91,-2.92 1.08,-7.8 1.67,-11.07 0.64,-3.55 1.59,-6.98 2.07,-10.56 -3.32,0.23 -4.87,0.93 -8.75,0.89 -3.12,-0.03 -5.35,-0.98 -7.85,-1.05z"/>
    <path class="fil6" d="M386.78 146.76c3.29,0.45 4.7,2.53 8.33,3.36 5.66,1.29 11.2,-0.16 18.81,6.41 0.74,0.63 0.86,0.59 1.6,1.27l2.67 3.03c1.77,-2.22 1.83,-9.39 1.54,-12.99 -0.42,-5.34 -3.2,-8.93 -3.43,-10.95 -1.19,0.78 -1.95,1.65 -3.38,2.19 0.59,2.36 1.99,2.5 3.07,7.7 0.52,2.48 1.24,7.42 -0.04,9.62 -1.29,-0.71 -4.13,-4.96 -11.76,-8.65 -2.6,-1.26 -5.18,-1.29 -8.19,-2 -3.82,-0.9 -3.75,-2.51 -7.85,-2.55l-1.37 3.56z"/>
    <path class="fil5" d="M376.82 119.35c-1.13,-1.86 -1.79,-0.89 -2.41,-3.8 5.11,0.91 5.41,2.37 13.16,2.1 3.01,-0.1 4.34,0.17 7.11,-0.36 2.06,-0.39 4.54,-1.41 6.58,-1.36 -0.18,2.1 -1.4,2.74 -3.19,3.43l-1.63 0.85c1.59,2.08 2.32,2.8 5.1,0.74 4.97,-3.68 4.05,-14.47 1.34,-18.07 -1.42,2.44 -1.16,10.83 -7.95,12.73 -4.12,1.15 -15.25,1.03 -18.52,-1.3 -0.29,-3.06 1.56,-4.46 0.76,-8.11 -0.39,-1.77 -0.67,-1.95 -2.25,-2.51 -1.26,-0.45 -2.31,-0.98 -3.53,-1.2 0.02,2.71 1.04,13.04 2.03,15.77 0.59,1.65 2.29,2.92 3.4,1.09z"/>
    <path class="fil2" d="M459.91 179.37c-0.36,1.33 -2.59,4.8 -3.45,5.68 -0.86,-1.06 -1.87,-5.56 -2.2,-7.25 1.71,0.3 4.36,0.62 5.65,1.57zm-5.31 18.49c2.34,-1.54 12.61,-16.11 13.62,-20.66 -3.91,0.05 -6.4,0.19 -10.07,-0.8 -2.95,-0.79 -5.53,-2.36 -7.96,-3.02 2.25,10.92 4.51,6.55 4.41,24.48z"/>
    <path class="fil4" d="M323.82 81.76c1.67,-0.07 3,-0.37 4.72,-0.28 1.61,0.09 3.14,0.66 4.76,0.53 2.3,-3.17 10.86,-9.31 14.64,-11.79l1.1 -0.88c-1.75,-1.95 -3.55,-2.66 -4.75,-5.17 -4.07,0.87 -19.38,15.06 -20.47,17.59z"/>
    <path class="fil7" d="M393.21 82.1c1.04,-1.23 1.26,-2.88 2.77,-4.35 4.06,-3.93 9.09,0.35 9.51,7.22 0.02,0.33 0.02,0.61 0.06,0.93l0.2 0.81c1.07,-3.91 3.73,-11.48 2.26,-15.45l0.44 -0.48c-0.85,-0.82 -4.13,-2.31 -5.54,-2.76 -2.77,-0.88 -5.14,-0.38 -7.98,-0.74 -1.28,3.82 -3.22,10.67 -1.72,14.82z"/>
    <path class="fil6" d="M423.34 124.2c1.56,-0.94 2.2,-0.47 4.77,-0.06 4.04,0.64 5.75,1.74 8.94,3.85 0.7,0.46 1.08,0.74 1.66,1.19l5.8 4.75c2.68,2.26 3.72,4.65 5.44,5.15 -0.22,-4.01 -1.65,-5.61 -2.19,-9.46 -0.29,-2.1 -3.72,-3.6 -6.43,-5.28 -3.62,-2.24 -12.23,-7.33 -17.65,-4.61l-0.34 4.47z"/>
    <path class="fil5" d="M334.71 116.5c-1.05,2.51 -4.02,3.14 -6.97,3.99 -2.84,0.81 -5.06,2.24 -7.24,3.61 -7.59,4.8 -9.8,3.97 -17.45,4.16l0 0.41c0.13,0.37 0,0.16 0.42,0.54 3.05,2.77 9.91,4.44 14.83,3.53 4.56,-0.85 12.77,-4.06 9.31,-9.83 -2.87,0.51 -6.07,3.72 -8.13,4.03 2.05,-2.26 4.58,-4.5 8.67,-5.74 2.39,-0.72 3.81,-0.73 6.45,-1.01 2.3,-0.26 3.36,-1.95 2.38,-4.35 -0.07,-0.03 -0.19,-0.12 -0.22,-0.04l-0.9 0.05c-0.38,0.11 -0.86,0.45 -1.15,0.65z"/>
    <path class="fil8" d="M457.36 275.34c0.3,-1.76 -0.77,-4.5 -1.1,-6.47 -0.77,-4.55 -0.39,-9.24 -2.83,-12.48 -6.29,-8.32 -5.41,12.17 -5.03,13.67 0.76,2.98 4.94,7.18 8.96,5.28z"/>
    <path class="fil8" d="M327.29 275.04c1.06,-1.02 2.25,-3.49 3.19,-4.77 3.06,-4.14 10.12,-10.5 6.38,-14.95 -2.73,-0.03 -9.28,6.26 -10.69,7.77 -1.86,1.98 -2.72,2.75 -2.61,6.54 0.08,2.71 1.05,5.27 3.73,5.41z"/>
    <path class="fil7" d="M449.96 129.34c0.94,4.96 1.42,1.49 2.45,11.12 0.52,4.86 1.77,6.63 4.36,9.25 5.11,5.16 10.44,4.66 16.66,0.71 1.43,-0.91 1.38,-0.69 1.98,-1.67 -2.51,-0.04 -5.54,1.68 -10.06,1.07 -10.53,-1.41 -7.11,-10.93 -8.72,-14.32l-4.81 -6.31c0.08,2.18 -0.11,0.71 -0.43,1.04l-1.43 -0.89z"/>
    <path class="fil2" d="M385.22 114.88l5.45 0.08 1.54 -2.41c0.76,-1.19 1.1,-1.56 0.96,-3.08l0.16 -0.47c0,-1.52 -0.09,-2.55 -0.99,-3.61l-0.36 -0.33c-2.38,-0.02 -4.56,0.4 -6.97,0.36 -2.6,-0.04 -4.65,-0.69 -7.19,-0.89l0.75 3.42c0.78,0.33 1.38,0.46 2.21,0.68 0.12,0.03 0.97,0.27 1,0.29l0.5 0.24c0.61,0.36 0.28,0.12 0.72,0.55l-4.61 -0.12c-0.51,1.32 -1.04,2.79 -0.94,4.3 2.27,0.51 5.5,1.65 7.77,0.99z"/>
    <path class="fil6" d="M367.45 30.11c0.88,-0.82 1.25,-1.46 2,-2.18 5.15,-4.96 10.37,-8.77 18.76,-8.6 5.41,0.12 12.68,3.33 17.42,5.78 1.88,0.98 3.52,2.15 5.22,2.94 -0.54,-0.91 -0.21,-0.41 -0.94,-1.15 -0.46,-0.45 -0.68,-0.65 -1.12,-1.1 -5.51,-5.76 -12,-9.69 -20.58,-9.98 -11.65,-0.39 -17.5,6.03 -20.76,14.29z"/>
    <path class="fil10" d="M398.06 140.02l0.32 0.42c0.2,0.22 0.28,0.32 0.5,0.53 0.3,0.28 0.72,0.58 1.11,0.8 4.39,2.42 12.15,3.66 15.08,11.86 0.88,0.04 0.74,-10.2 -5.04,-15.53 -7.13,-6.55 -8.11,-3.78 -10.3,-2.69 -1.77,0.88 -2.52,0.41 -2.93,2.5 2.39,1.55 5.01,-0.36 11.69,6.23 -3.55,-1.27 -5.61,-3.58 -10.43,-4.12z"/>
    <path class="fil7" d="M369.6 70.62c-0.06,0.09 -0.11,0.12 -0.13,0.28 -0.01,0.02 -1.06,2.62 -1.13,5.77 -0.03,1.7 -0.09,5.66 0.32,7.05 0.35,-0.56 1.48,-6.84 6.15,-7.21 4.64,-0.37 5.16,4.79 4.83,8.78l0.33 -0.54c1.3,-2.83 1.89,-9.12 1.88,-12.22 -0.01,-1.97 -0.25,-3.26 -0.26,-4.86 -2.47,0.29 -4.67,0.42 -6.75,1.38 -1.08,0.5 -1.55,0.86 -2.6,1.56 -1.11,0.75 -1.91,1.55 -2.64,0.01z"/>
    <path class="fil7" d="M303.05 128.67l0 -0.41c7.65,-0.19 9.86,0.64 17.45,-4.16 2.18,-1.37 4.4,-2.8 7.24,-3.61 2.95,-0.85 5.92,-1.48 6.97,-3.99 -2.52,0.65 -5.44,2.06 -8.05,2.93 -6.59,2.21 -20.41,5.46 -26.95,6.24 0.2,1.11 2.21,2.3 3.34,3z"/>
    <path class="fil6" d="M344.38 143.28l5.19 -3.19c4.62,-3.15 11.06,-8.33 16.12,-9.81l-0.83 -4.46c-1.73,0.3 -12.56,7.99 -15.9,10.16 -1.48,0.95 -4.26,2.41 -5.34,3.53l0.76 3.77z"/>
    <path class="fil1" d="M398.43 83.1c0.52,-0.35 0.57,-0.46 1.55,-0.37 0.19,0.89 0.42,1.75 -0.6,1.77 -0.71,0.02 -0.77,-0.68 -0.95,-1.4zm0 0c-2.09,2.28 0.19,4.6 0.86,6.35l-2.15 -0.29c-1.74,-0.4 -2.79,-1.26 -3.01,-3.22 -0.16,-1.45 0.1,-3.8 0.93,-4.68 0.24,-2.83 4.11,-5.7 7.01,-2.5 1.41,1.55 4.11,6.92 1.48,8.65 -0.22,-2.34 0.45,-3.84 -1.16,-5.47 -1.5,-1.51 -3.44,-0.76 -3.96,1.16zm-5.22 -1c0.14,2.2 -2.23,9.58 7.16,8.13l0.13 1.35c5.78,-5.12 5.83,-3.37 7.47,-4.91l-2.22 0.04 -0.2 -0.81c-0.04,-0.32 -0.04,-0.6 -0.06,-0.93 -0.42,-6.87 -5.45,-11.15 -9.51,-7.22 -1.51,1.47 -1.73,3.12 -2.77,4.35z"/>
    <path class="fil6" d="M362.34 152.78c9.11,-3.6 2.49,-1.63 11.85,-2.3 1.82,-0.13 4.18,-0.64 5.76,-1.38 1.65,-0.78 3.16,-2.12 5.22,-1.9l1.86 -4.41c-4.59,-0.33 -3.09,-0.55 -6.54,1.44 -5.75,3.3 -11.95,3.55 -15.9,6.1 -1.53,0.98 -1.83,1.32 -2.25,2.45z"/>
    <path class="fil2" d="M478.98 154.87c-0.38,-1.04 -0.69,-1.01 -2,-1.44 -1.1,-0.36 -1.61,-0.43 -2.71,-0.4 -1.97,0.07 -6.39,3.77 -12.31,2.64 -1.62,-0.31 -2.56,-1.16 -3.75,-1.38 1.7,2.73 5.07,5.71 10.05,5.63 3.15,-0.06 6.24,-1.47 8.71,-3.09 2.02,-1.32 1.83,-0.99 2.01,-1.96z"/>
    <path class="fil10" d="M362.89 149.13c0.44,-0.37 0.1,-0.07 0.57,-0.53 2.38,-2.28 1.96,-2.16 5.65,-3.95 1.22,-0.59 4.66,-2.21 5.36,-3.54 0.34,-0.64 0.64,-0.12 0.02,-0.66l-4.68 2.35c1.86,-2.54 3.8,-3.01 6.53,-4.86l0.47 -2.73c-1.58,-1.01 -3.47,0.02 -5.13,0.85 -2.01,1 -2.8,1.8 -4.2,3.13 -2.19,2.07 -4.31,5.8 -4.59,9.94z"/>
    <path class="fil2" d="M472.41 247.01c-4.82,2.25 -6.61,12.26 -2.16,13.39 5.02,1.26 6.18,-11.53 2.16,-13.39z"/>
    <path class="fil4" d="M415.07 153.63c-2.93,-8.2 -10.69,-9.44 -15.08,-11.86 -0.39,-0.22 -0.81,-0.52 -1.11,-0.8 -0.22,-0.21 -0.3,-0.31 -0.5,-0.53l-0.32 -0.42 -2.24 -0.23c-1.48,2.55 -2.12,2.13 -3.05,3.22 1.33,1.61 9.21,2.35 12.31,3.86 6.53,3.16 6.49,4.61 9.99,6.76z"/>
    <path class="fil6" d="M474.27 153.03c1.1,-0.03 1.61,0.04 2.71,0.4 1.31,0.43 1.62,0.4 2,1.44 5.7,-2.7 7.06,-18.29 3.43,-25.23 0.07,4.37 2.15,7.05 -0.64,14.14 -0.77,1.96 -1.83,3.91 -3.12,5.16 -1.15,1.13 -3.64,2.81 -4.38,4.09z"/>
    <path class="fil7" d="M381.46 65.66l0.12 -0.98c1.95,-0.4 3.9,-0.8 5.98,-0.84 2.37,-0.03 4.79,0.39 6.71,0.34l0.19 0.94c0.52,-0.7 1.95,-4.11 1.85,-4.82 -7.04,-0.84 -10.72,-0.01 -17.07,1.36 0.36,1.15 1.63,2.88 2.22,4z"/>
    <path class="fil4" d="M374.49 140.45c0.62,0.54 0.32,0.02 -0.02,0.66 -0.7,1.33 -4.14,2.95 -5.36,3.54 -3.69,1.79 -3.27,1.67 -5.65,3.95 -0.47,0.46 -0.13,0.16 -0.57,0.53 0.14,1.4 0.01,0.45 0.44,0.8 4.46,-3.79 10.02,-2.68 18.48,-7.86l-2.24 -3.1c-1.99,0.1 -3.65,0.52 -5.08,1.48z"/>
    <path class="fil8" d="M346.42 83.37c1.05,0.64 2.45,1.07 3.45,1.67 1.42,0.85 1.81,1.56 2.94,2.23 0.87,-1.09 0.91,-2.97 3.15,-6.17 0.79,-1.13 3.34,-4.18 3.37,-5.51 -3.05,-0.18 -12.15,6.34 -12.91,7.78z"/>
    <path class="fil7" d="M389.87 96.11c-3.61,0.91 -6.12,1.39 -10.14,0.53 -3.25,-0.69 -4.86,-3.86 -3.61,-7.29 -2.07,0.58 -3.86,2.5 -3.52,5.16 0.29,2.32 2.37,3.57 4.58,4.35 5.02,1.79 10.62,1.23 12.69,-2.75z"/>
    <path class="fil2" d="M306.47 255.73c2.19,1.31 3.98,2 7.36,1.09 1.78,-0.48 5.44,-1.6 4.65,-4.53 -1.17,-4.34 -11.22,0.12 -12.01,3.44z"/>
    <path class="fil2" d="M395.06 81.26c0.48,2.34 0.15,1.09 1.22,2.11 -0.31,2.34 -0.39,3.9 0.86,5.79l2.15 0.29c-0.67,-1.75 -2.95,-4.07 -0.86,-6.35 0.52,-1.92 2.46,-2.67 3.96,-1.16 1.61,1.63 0.94,3.13 1.16,5.47 2.63,-1.73 -0.07,-7.1 -1.48,-8.65 -2.9,-3.2 -6.77,-0.33 -7.01,2.5z"/>
    <path class="fil7" d="M376.82 119.35l1.7 -1.36c1.18,-0.48 3.27,0.87 7.12,1.11 4.02,0.24 7.65,-0.74 10.8,1.11l1.63 -0.85c1.79,-0.69 3.01,-1.33 3.19,-3.43 -2.04,-0.05 -4.52,0.97 -6.58,1.36 -2.77,0.53 -4.1,0.26 -7.11,0.36 -7.75,0.27 -8.05,-1.19 -13.16,-2.1 0.62,2.91 1.28,1.94 2.41,3.8z"/>
    <path class="fil7" d="M479.11 143.49c1.17,-1.3 1.57,-3.85 1.69,-5.57 0.31,-4.6 -0.86,-8.15 -2.1,-12.37 -0.27,-0.93 -0.54,-1.82 -0.81,-2.68 -0.17,-0.54 -0.26,-0.91 -0.46,-1.46 -0.02,-0.05 -0.28,-0.69 -0.29,-0.71 -0.32,-0.65 -0.09,-0.27 -0.38,-0.65 -0.1,6 -1.01,7.18 0.59,11.64 0.67,1.86 1.1,3.37 1.49,5.27 0.41,2 0.11,4.26 0.27,6.53z"/>
    <path class="fil2" d="M373.23 83.43c0.29,-1.24 0.1,-1.31 1.1,-1.89 1.71,-2.95 3.92,1.33 4.06,1.52l0.35 0.39c0.02,-6.3 -4.21,-8.12 -7.38,-3.52 -2.65,3.86 -2.21,8.64 3.6,8.64 -0.04,-0.09 -0.11,-0.3 -0.14,-0.25 -0.02,0.05 -0.1,-0.19 -0.14,-0.24 -0.13,-0.22 -0.28,-0.45 -0.41,-0.66 -0.98,-1.58 -1.03,-2.03 -1.04,-3.99z"/>
    <path class="fil7" d="M465.09 124.08c-5.27,0.4 -6.28,-5.69 -2.22,-8.77 1.04,-0.79 0.53,0.1 1.24,-1.23 -10.93,3.25 -9.75,15.18 -0.29,10.8 0.41,-0.19 0.29,-0.13 0.66,-0.35 0.56,-0.35 0.32,-0.21 0.61,-0.45z"/>
    <path class="fil2" d="M318.41 135.23c-0.87,1.81 -1.32,0.53 -2.31,3.11 6.75,0.3 14.19,-3.53 14.35,-9.65l-0.37 -0.44c-0.56,2.08 -2.82,3.58 -4.73,4.53 -2.57,1.29 -4.49,1.58 -6.94,2.45z"/>
    <path class="fil8" d="M342.69 248.51c-8.2,1.85 -3.33,6.97 0.18,5.76 4,-1.39 8.15,-7.64 -0.18,-5.76z"/>
    <path class="fil4" d="M311.01 93.58c0.39,3.62 -4.06,2.69 -5.95,1.57 -0.1,-1.98 0.22,-2.26 2.18,-2.49 1.92,-0.22 2.67,-0.13 3.77,0.92zm-4.83 -1.42c-5.74,1.55 0.47,8.48 6.58,6.66 2.64,-0.79 2.63,-3.6 0.47,-5.2 -1.55,-1.16 -4.82,-2.06 -7.05,-1.46z"/>
    <path class="fil8" d="M451.78 242.86c-1.47,0.79 -2.58,2.22 -3.44,4.3 -0.92,2.21 -0.37,4.46 2.33,4.24 4.56,-0.39 4.9,-10.57 1.11,-8.54z"/>
    <path class="fil4" d="M335.93 95.07c0.55,4.22 -4.7,4.04 -5.53,3.03 -1.02,-1.25 0.35,-2.4 1.43,-2.85 1.51,-0.63 2.57,-0.51 4.1,-0.18zm-2.24 -1.58c-7.79,1.59 -6.04,8.28 1.14,6.61 7.29,-1.69 5.37,-7.93 -1.14,-6.61z"/>
    <path class="fil1" d="M306.18 92.16c2.23,-0.6 5.5,0.3 7.05,1.46 2.16,1.6 2.17,4.41 -0.47,5.2 -6.11,1.82 -12.32,-5.11 -6.58,-6.66zm-0.17 -1.21c-3.59,0.98 -4.33,4.5 -1.86,6.96 1.52,1.52 5.93,2.98 8.91,2.15 3.4,-0.95 3.78,-4.72 1.55,-6.87 -1.71,-1.65 -5.58,-3.06 -8.6,-2.24z"/>
    <path class="fil1" d="M285.16 109.08c6.52,-1.54 9.23,4.73 1.39,6.6 -6.65,1.6 -8.99,-4.81 -1.39,-6.6zm-6 3.79c0.43,3.73 4.08,4.91 7.88,3.94 1.65,-0.43 3.25,-1.24 4.25,-2.15 1.7,-1.55 1.39,-2.58 0.84,-4.86 -1.13,-0.77 -1.39,-1.54 -3.43,-1.94 -1.45,-0.29 -2.91,-0.26 -4.37,0.12 -2.69,0.7 -4.76,2.26 -5.17,4.89z"/>
    <path class="fil1" d="M333.69 93.49c6.51,-1.32 8.43,4.92 1.14,6.61 -7.18,1.67 -8.93,-5.02 -1.14,-6.61zm-5.81 6.15c2.3,1.74 4.94,2.66 8.58,1.2 3.02,-1.21 5.52,-3.17 3.62,-6.94 -0.94,-0.18 -3.61,-3.26 -8.95,-0.96 -4.74,2.04 -3.75,4.49 -3.25,6.7z"/>
    <path class="fil7" d="M466.55 133.93l-2.24 0.43c-1.68,-3.95 -2.38,-3.82 0.12,-8.3l-5.17 1.19c-0.87,1.69 -1.24,5.49 0.39,6.83 1.28,1.05 5.62,0.98 6.9,-0.15z"/>
    <path class="fil1" d="M422.65 166.49c2.71,0 5.43,-0.41 7.84,-0.95 1.31,-0.29 2.25,-0.55 3.5,-0.99 1.13,-0.4 2,-0.67 2.78,-1.52 -4.81,0.46 -8.51,1.64 -13.8,1.64 -3.65,0.19 -7.36,-0.43 -11.01,-0.77 3.05,1.82 6.47,2.58 10.69,2.59z"/>
    <path class="fil4" d="M282.09 113.32c-0.47,-3.02 1.43,-3.19 4.06,-3.18 5.57,0 3.52,6.56 -4.06,3.18zm3.07 -4.24c-7.6,1.79 -5.26,8.2 1.39,6.6 7.84,-1.87 5.13,-8.14 -1.39,-6.6z"/>
    <path class="fil4" d="M416.41 128.48c1.28,-0.46 -0.4,3.93 -0.64,4.47 -0.85,1.98 -1.55,2.49 -2.68,4.21 3.91,-1.61 9.68,-10.37 8.86,-15.4 -0.96,0.89 -1.85,2.27 -2.64,3.24 -1.02,1.24 -1.95,1.81 -2.9,3.48z"/>
    <path class="fil1" d="M291.18 103.79c-1.3,1.06 -3.69,1.32 -5.62,0.93 -2.07,-0.42 -3.12,-1.24 -3.69,-3.01 3.27,0.25 7.8,-0.13 9.31,2.08zm-7.91 -3.16c-1.43,-0.12 -2.28,-0.52 -3.64,-0.68 0.52,2.83 2.63,5.06 5.14,5.83 2.71,0.83 6.69,-0.1 8.35,-1.67 -1.6,-3.73 -6.97,-3.24 -9.85,-3.48z"/>
    <path class="fil1" d="M327.8 103.75c-3.35,1.86 -8.44,1.03 -9.56,-2.22 3.02,0.03 8.42,-0.13 9.56,2.22zm-8.13 1.24c3.41,1.43 7.24,1.12 10.03,-1.01 -0.51,-1.12 -0.96,-1.49 -2.05,-2.15 -0.86,-0.52 -2.67,-0.77 -3.46,-1.36 -3.17,0.52 -5.37,-0.55 -8.05,-0.64 0.62,2.67 1.86,3.83 3.53,5.16z"/>
    <path class="fil4" d="M382.45 137.24c1.8,2.9 8.2,1.42 7.78,4.79 3.01,-0.12 5.01,-2.22 5.32,-4.99 -5.54,0.66 -7.35,1.04 -13.1,0.2z"/>
    <path class="fil10" d="M413.09 137.16c1.13,-1.72 1.83,-2.23 2.68,-4.21 0.24,-0.54 1.92,-4.93 0.64,-4.47 -0.89,0.45 -6.47,6.09 -7.25,7.2 1.08,0.85 1.7,1.71 2.68,2.44 0.88,-0.34 0.6,-0.08 1.25,-0.96z"/>
    <path class="fil6" d="M385.22 114.88c0.08,0.05 0.21,0.01 0.26,0.11 0.2,0.44 4.17,0.3 4.62,0.27 5.16,-0.39 7.27,-1.18 9.4,-5.57l-6.33 -0.22c0.14,1.52 -0.2,1.89 -0.96,3.08l-1.54 2.41 -5.45 -0.08z"/>
    <path class="fil7" d="M465.68 142.91c-1.73,-0.47 -2.04,-0.66 -2.02,-3.08 0.01,-1.68 0.66,-2.89 1.41,-4.14 -1.55,0.13 -6.12,-0.83 -5.59,4.36 0.39,3.78 5.47,3.31 6.2,2.86z"/>
    <path class="fil1" d="M312.35 107.54c0.95,-0.59 0.57,-0.33 1.33,-0.41 2.19,-2.01 9.67,1.24 2.33,3.55 -5.86,1.85 -6.25,-1.81 -3.66,-3.14zm-2.58 1.15c-0.54,4.48 3.78,4.15 6.96,3.03 3.36,-1.18 5.54,-3.67 1.6,-6.06 -2.16,-0.03 -3.2,-0.69 -5.53,0.2 -2.06,0.79 -1.81,1.43 -3.03,2.83z"/>
    <path class="fil2" d="M394.59 104.6c0.26,1.96 -0.18,1.57 0.63,3.06 0.05,0.08 0.12,0.19 0.16,0.26 0.04,0.08 0.1,0.19 0.16,0.28 1.41,-0.17 0.93,-0.4 2.15,-0.41 3.53,0.22 3.68,-2.27 3.98,-5.37l-7.08 2.18z"/>
    <path class="fil1" d="M299.26 109.48c1.96,-1.67 7.33,-1.46 6.37,1.03 -0.54,1.41 -2.1,1.72 -3.73,1.44 -1.68,-0.28 -2.84,-0.51 -2.64,-2.47zm-0.86 -0.92c-0.81,3.63 0.29,4.23 3.8,4.69 3.25,0.43 4.92,-1.22 4.64,-4.4 -1.96,-2.28 -5.91,-2.2 -8.44,-0.29z"/>
    <path class="fil1" d="M317.71 94.43c1.82,-0.77 4.77,-1.17 6.31,0.1 -0.05,1.75 -1.44,2.59 -3.16,2.72 -2.43,0.2 -3.26,-0.52 -3.15,-2.82zm1.22 -1.66c-5.55,1.29 -1.39,7.56 3.93,5.3 4.45,-1.89 2.9,-6.88 -3.93,-5.3z"/>
    <path class="fil10" d="M282.09 113.32c7.58,3.38 9.63,-3.18 4.06,-3.18 -2.63,-0.01 -4.53,0.16 -4.06,3.18z"/>
    <path class="fil1" d="M299.64 101.47l0.88 -0.19c1.08,-0.67 2.26,-0.56 3.78,-0.18l-0.04 2.33c-2.38,1.55 -5.94,0.51 -5.16,-1.39 0.32,-0.77 -0.19,-0.14 0.54,-0.57zm5.4 -1.58c-7.62,-1.61 -8.47,3.05 -6.27,4.67 1.21,0.9 8.93,2.6 6.27,-4.67z"/>
    <path class="fil2" d="M408.48 276.1c2.42,-0.19 9.59,-3.28 7.46,-5.14 -1.21,-1.06 -3.96,0.19 -4.84,0.83 -1.09,0.8 -2.29,2.4 -2.62,4.31z"/>
    <path class="fil10" d="M390.23 142.03c0.42,-3.37 -5.98,-1.89 -7.78,-4.79l-2.56 -0.68c0.44,1.84 2.17,4.05 3.6,4.5 1.29,0.41 5.27,0.8 6.74,0.97z"/>
    <path class="fil1" d="M272.89 105.84c0.37,-0.72 0.04,-0.67 1.14,-1.08 1.43,-0.53 3.19,-0.25 3.13,2.46 -1.88,0.86 -4.34,1.98 -5.25,-0.65l0.98 -0.73zm5.58 1.86c0.4,-5.95 -6.26,-4.92 -7.39,-2.06 -0.87,2.2 0.68,3.57 2.72,3.81 1.74,0.2 3.5,-0.83 4.67,-1.75z"/>
    <path class="fil6" d="M316.1 138.34c0.99,-2.58 1.44,-1.3 2.31,-3.11 -6.2,0.38 -6.65,0.02 -11.89,-1.41 1.33,2.23 5.96,4.42 9.58,4.52z"/>
    <path class="fil8" d="M456.46 185.05c0.86,-0.88 3.09,-4.35 3.45,-5.68 -1.29,-0.95 -3.94,-1.27 -5.65,-1.57 0.33,1.69 1.34,6.19 2.2,7.25z"/>
    <path class="fil8" d="M327.8 103.75c-1.14,-2.35 -6.54,-2.19 -9.56,-2.22 1.12,3.25 6.21,4.08 9.56,2.22z"/>
    <path class="fil8" d="M291.18 103.79c-1.51,-2.21 -6.04,-1.83 -9.31,-2.08 0.57,1.77 1.62,2.59 3.69,3.01 1.93,0.39 4.32,0.13 5.62,-0.93z"/>
    <path class="fil6" d="M370.46 179.15c1.77,4.23 5.81,1.32 6.6,0.23 0.8,-1.12 1.95,-4.39 -1.56,-5.29 1.31,4.53 -0.47,6.21 -5.04,5.06z"/>
    <path class="fil1" d="M428.7 93.63c2.21,0.71 3.56,-1.44 3.04,-3.72 -0.61,-2.65 -2.63,-1.66 -1.08,-5.07l2.1 0.44c-0.35,-3.89 -4.8,-1.56 -4.06,1.87 0.33,1.57 1.5,1.39 1.71,3.26 0.27,2.32 -0.97,1.83 -1.71,3.22z"/>
    <path class="fil4" d="M293.66 95.14c0.47,3.06 -2.55,2.72 -4.36,1.63 -0.03,-2.29 0.91,-1.71 3.02,-1.93 -1.66,-0.74 -3.7,-0.22 -4.58,1.29 0.55,2.72 5.37,3.37 8.09,2.64 0.5,-2.16 -0.43,-3.04 -2.17,-3.63z"/>
    <path class="fil10" d="M335.93 95.07c-1.53,-0.33 -2.59,-0.45 -4.1,0.18 -1.08,0.45 -2.45,1.6 -1.43,2.85 0.83,1.01 6.08,1.19 5.53,-3.03z"/>
    <path class="fil10" d="M311.01 93.58c-1.1,-1.05 -1.85,-1.14 -3.77,-0.92 -1.96,0.23 -2.28,0.51 -2.18,2.49 1.89,1.12 6.34,2.05 5.95,-1.57z"/>
    <path class="fil1" d="M374.5 158.58c0.89,-0.74 1.69,-1.3 3.23,-0.94 0.31,1.42 0.06,2.66 -1.13,3.16 -2.27,0.94 -2.38,-0.45 -2.1,-2.22zm-1.29 0.38c-0.1,3.96 2.77,3.82 4.78,2.22 0.06,-0.05 0.13,-0.11 0.19,-0.16l0.39 -0.31c0.04,-0.04 0.13,-0.11 0.2,-0.16 0.16,-1.72 0.98,-3.72 -1.44,-4.16 -2.25,-0.42 -3.53,1.11 -4.12,2.57z"/>
    <path class="fil1" d="M372.91 175.14c2.86,-1.29 2.47,2.62 0.53,3.27 -2.54,0.85 -3.14,-2.1 -0.53,-3.27zm-2.45 4.01c4.57,1.15 6.35,-0.53 5.04,-5.06 -1.71,-0.13 -2.99,-0.66 -4.34,0.67 -1.53,1.52 -0.9,2.48 -0.7,4.39z"/>
    <path class="fil4" d="M312.35 107.54c-2.59,1.33 -2.2,4.99 3.66,3.14 7.34,-2.31 -0.14,-5.56 -2.33,-3.55 1.82,-0.28 2.5,-0.47 3.68,0.8 -0.54,2.95 -2.87,1.95 -5.24,1.38l0.23 -1.77z"/>
    <path class="fil6" d="M378.77 160.55c-0.07,0.05 -0.16,0.12 -0.2,0.16l-0.39 0.31c-0.06,0.05 -0.13,0.11 -0.19,0.16 -2.01,1.6 -4.88,1.74 -4.78,-2.22 -0.94,0.8 -0.58,1.95 0.01,3.56 0.78,2.09 4.02,1.85 5.61,0.42 1.54,-1.37 0.51,-1.28 -0.06,-2.39z"/>
    <path class="fil11" d="M300.13 109.53c1.01,-1.12 2.68,-0.96 3.59,0 -0.23,1 -0.53,1.33 -1.94,1.3 -1.28,-0.02 -1.45,-0.25 -1.65,-1.3zm-0.87 -0.05c-0.2,1.96 0.96,2.19 2.64,2.47 1.63,0.28 3.19,-0.03 3.73,-1.44 0.96,-2.49 -4.41,-2.7 -6.37,-1.03z"/>
    <path class="fil10" d="M312.35 107.54l-0.23 1.77c2.37,0.57 4.7,1.57 5.24,-1.38 -1.18,-1.27 -1.86,-1.08 -3.68,-0.8 -0.76,0.08 -0.38,-0.18 -1.33,0.41z"/>
    <path class="fil6" d="M397.14 89.16c-1.25,-1.89 -1.17,-3.45 -0.86,-5.79 -1.07,-1.02 -0.74,0.23 -1.22,-2.11 -0.83,0.88 -1.09,3.23 -0.93,4.68 0.22,1.96 1.27,2.82 3.01,3.22z"/>
    <path class="fil11" d="M322.46 94.28c0.09,3.17 -3.55,2.53 -3.92,1.69 -0.7,-1.56 2.53,-1.91 3.92,-1.69zm-4.75 0.15c-0.11,2.3 0.72,3.02 3.15,2.82 1.72,-0.13 3.11,-0.97 3.16,-2.72 -1.54,-1.27 -4.49,-0.87 -6.31,-0.1z"/>
    <path class="fil6" d="M372.91 175.14c-2.61,1.17 -2.01,4.12 0.53,3.27 1.94,-0.65 2.33,-4.56 -0.53,-3.27z"/>
    <path class="fil11" d="M299.64 101.47c-0.73,0.43 -0.22,-0.2 -0.54,0.57 -0.78,1.9 2.78,2.94 5.16,1.39l0.04 -2.33c-1.52,-0.38 -2.7,-0.49 -3.78,0.18 1.55,-0.06 1.24,-0.23 2.21,0.59 -0.43,1.88 -2.93,1.33 -3.15,0.28 -0.1,-0.46 -0.04,-0.08 0.06,-0.68z"/>
    <path class="fil10" d="M293.66 95.14l-1.34 -0.3c-2.11,0.22 -3.05,-0.36 -3.02,1.93 1.81,1.09 4.83,1.43 4.36,-1.63z"/>
    <path class="fil6" d="M374.5 158.58c-0.28,1.77 -0.17,3.16 2.1,2.22 1.19,-0.5 1.44,-1.74 1.13,-3.16 -1.54,-0.36 -2.34,0.2 -3.23,0.94z"/>
    <path class="fil10" d="M370.67 134.65c0.88,0.11 2.2,-0.4 2.84,-0.88 -0.6,-0.69 -1.22,-1.21 -1.97,-1.83 -0.84,-0.7 -1.31,-1.3 -2.15,-2.02 -0.35,0.42 -0.47,-0.78 -0.24,1.17 0.01,0.08 0.32,1.12 0.37,1.26 0.38,1.16 0.49,1.23 1.15,2.3z"/>
    <path class="fil4" d="M370.67 134.65c-0.66,-1.07 -0.77,-1.14 -1.15,-2.3 -0.05,-0.14 -0.36,-1.18 -0.37,-1.26 -0.23,-1.95 -0.11,-0.75 0.24,-1.17 -0.58,-0.73 -2.07,-2.48 -2.87,-2.88 0.38,3.38 1.89,6.61 4.15,7.61z"/>
    <path class="fil7" d="M367.07 69.97c1.24,-0.63 1.87,-1.08 3.12,-1.24 0.24,-0.36 0.93,-1.52 1.29,-2.08 0.58,-0.92 1.03,-1.25 1.44,-2.08 -1.39,0.46 -2.29,1.28 -3.36,2.07 -1.37,1 -2.32,1.05 -2.49,3.33z"/>
    <path class="fil11" d="M272.89 105.84c1.42,-0.7 2.29,-0.64 3.27,0.2 -0.43,1.79 -1.77,1.34 -3.41,0.93l0.14 -1.13zm0 0l-0.98 0.73c0.91,2.63 3.37,1.51 5.25,0.65 0.06,-2.71 -1.7,-2.99 -3.13,-2.46 -1.1,0.41 -0.77,0.36 -1.14,1.08z"/>
    <path class="fil6" d="M391.98 105.06l0.36 0.33c0.9,1.06 0.99,2.09 0.99,3.61 0.92,-0.14 1.35,-0.29 2.14,-0.49 0.38,-0.09 0.75,-0.13 1.06,-0.21 1.11,-0.3 0.49,0.07 1.16,-0.51 -1.22,0.01 -0.74,0.24 -2.15,0.41 -0.06,-0.09 -0.12,-0.2 -0.16,-0.28 -0.04,-0.07 -0.11,-0.18 -0.16,-0.26 -0.81,-1.49 -0.37,-1.1 -0.63,-3.06l-2.61 0.46z"/>
    <path class="fil12" d="M322.46 94.28c-1.39,-0.22 -4.62,0.13 -3.92,1.69 0.37,0.84 4.01,1.48 3.92,-1.69z"/>
    <path class="fil12" d="M300.13 109.53c0.2,1.05 0.37,1.28 1.65,1.3 1.41,0.03 1.71,-0.3 1.94,-1.3 -0.91,-0.96 -2.58,-1.12 -3.59,0z"/>
    <path class="fil12" d="M272.89 105.84l-0.14 1.13c1.64,0.41 2.98,0.86 3.41,-0.93 -0.98,-0.84 -1.85,-0.9 -3.27,-0.2z"/>
    <path class="fil12" d="M300.52 101.28l-0.88 0.19c-0.1,0.6 -0.16,0.22 -0.06,0.68 0.22,1.05 2.72,1.6 3.15,-0.28 -0.97,-0.82 -0.66,-0.65 -2.21,-0.59z"/>
    <path class="fil4" d="M376.34 137.94l2.13 -0.78c-0.25,-1.11 -0.6,-1.53 -1.66,-1.95l-0.47 2.73z"/>
    <path class="fil7" d="M397.68 62.95c0.47,-0.32 0.56,-0.38 1.09,-0.92 0.6,-0.61 0.64,-0.58 0.8,-1.15l-1.79 -0.31 -0.1 2.38z"/>
    <path class="fil2" d="M398.43 83.1c0.18,0.72 0.24,1.42 0.95,1.4 1.02,-0.02 0.79,-0.88 0.6,-1.77 -0.98,-0.09 -1.03,0.02 -1.55,0.37z"/>
    <path class="fil7" d="M376.5 62.73c0.72,0.57 1.52,1.17 2.26,1.5l-0.3 -2.03 -1.96 0.53z"/>
    <path class="fil2" d="M373.96 82.97c0.49,1 -0.2,0.63 1.17,0.69 0.39,-0.78 0.55,-0.51 0.05,-1.52l-1.12 -0.13 -0.1 0.96z"/>
    <path class="fil13" d="M373.23 83.43c0.22,-0.19 0.49,-0.29 0.73,-0.46l0.1 -0.96 1.12 0.13c-0.48,-0.49 0.64,-0.21 -0.85,-0.6 -1,0.58 -0.81,0.65 -1.1,1.89z"/>
    <path class="fil13" d="M365.25 33.74c0.12,-0.22 0.17,0.23 0.3,-0.75 0.07,-0.55 0.02,-0.43 -0.02,-0.93l-1.25 0.31 1.03 -0.16 -0.06 1.53z"/>
    <path class="fil13" d="M468.19 110.48l1.13 -0.19 -0.4 -0.86c-0.23,0.86 -0.04,0.6 -0.73,1.05z"/>
    <path class="fil13" d="M336.89 83.74c-0.39,-0.49 -0.12,-0.2 -0.32,-0.78 -1.26,0 0.06,0.67 0.32,0.78z"/>
    <polygon class="fil13" points="330.08,128.25 330.45,128.69 330.83,127.63 "/>
   </g>
  </g>
 </g>
</svg>
